<mxfile host="app.diagrams.net" modified="2022-03-11T02:44:35.380Z" agent="5.0 (Windows NT 6.1; WOW64) AppleWebKit/537.36 (KHTML, like Gecko) Chrome/70.0.3538.25 Safari/537.36 Core/1.70.3883.400 QQBrowser/10.8.4559.400" etag="iP9pk6UVg-8oEEf-yU3D" version="16.6.4" type="github">
  <diagram id="eZUc8nQvDIQbsPF221Cz" name="Page-1">
    <mxGraphModel dx="1610" dy="1599" grid="1" gridSize="10" guides="1" tooltips="1" connect="1" arrows="1" fold="1" page="1" pageScale="1" pageWidth="827" pageHeight="1169" math="0" shadow="0">
      <root>
        <mxCell id="0" />
        <mxCell id="1" parent="0" />
        <mxCell id="B4HZqI1mZsQpKSkkHXQl-2" value="trace_probe_event" style="swimlane;fontStyle=1;align=center;verticalAlign=top;childLayout=stackLayout;horizontal=1;startSize=26;horizontalStack=0;resizeParent=1;resizeParentMax=0;resizeLast=0;collapsible=1;marginBottom=0;" parent="1" vertex="1">
          <mxGeometry x="412" y="377" width="116" height="34" as="geometry" />
        </mxCell>
        <mxCell id="B4HZqI1mZsQpKSkkHXQl-4" value="" style="line;strokeWidth=1;fillColor=none;align=left;verticalAlign=middle;spacingTop=-1;spacingLeft=3;spacingRight=3;rotatable=0;labelPosition=right;points=[];portConstraint=eastwest;" parent="B4HZqI1mZsQpKSkkHXQl-2" vertex="1">
          <mxGeometry y="26" width="116" height="8" as="geometry" />
        </mxCell>
        <mxCell id="B4HZqI1mZsQpKSkkHXQl-7" style="edgeStyle=orthogonalEdgeStyle;rounded=0;orthogonalLoop=1;jettySize=auto;html=1;exitX=1;exitY=0.5;exitDx=0;exitDy=0;entryX=0;entryY=0.5;entryDx=0;entryDy=0;" parent="1" source="B4HZqI1mZsQpKSkkHXQl-23" target="B4HZqI1mZsQpKSkkHXQl-2" edge="1">
          <mxGeometry relative="1" as="geometry">
            <mxPoint x="320" y="396.9999999999999" as="sourcePoint" />
            <mxPoint x="422" y="406" as="targetPoint" />
            <Array as="points">
              <mxPoint x="390" y="237" />
              <mxPoint x="390" y="394" />
            </Array>
          </mxGeometry>
        </mxCell>
        <mxCell id="B4HZqI1mZsQpKSkkHXQl-8" value="event" style="edgeLabel;html=1;align=center;verticalAlign=middle;resizable=0;points=[];" parent="B4HZqI1mZsQpKSkkHXQl-7" vertex="1" connectable="0">
          <mxGeometry x="-0.1816" y="1" relative="1" as="geometry">
            <mxPoint as="offset" />
          </mxGeometry>
        </mxCell>
        <mxCell id="B4HZqI1mZsQpKSkkHXQl-9" value="trace_kprobe" style="swimlane;fontStyle=1;align=center;verticalAlign=top;childLayout=stackLayout;horizontal=1;startSize=26;horizontalStack=0;resizeParent=1;resizeParentMax=0;resizeLast=0;collapsible=1;marginBottom=0;" parent="1" vertex="1">
          <mxGeometry x="160" y="377" width="160" height="34" as="geometry" />
        </mxCell>
        <mxCell id="B4HZqI1mZsQpKSkkHXQl-11" value="" style="line;strokeWidth=1;fillColor=none;align=left;verticalAlign=middle;spacingTop=-1;spacingLeft=3;spacingRight=3;rotatable=0;labelPosition=right;points=[];portConstraint=eastwest;" parent="B4HZqI1mZsQpKSkkHXQl-9" vertex="1">
          <mxGeometry y="26" width="160" height="8" as="geometry" />
        </mxCell>
        <mxCell id="B4HZqI1mZsQpKSkkHXQl-33" style="edgeStyle=orthogonalEdgeStyle;rounded=0;orthogonalLoop=1;jettySize=auto;html=1;entryX=0.5;entryY=1;entryDx=0;entryDy=0;exitX=1;exitY=0;exitDx=0;exitDy=0;" parent="1" source="B4HZqI1mZsQpKSkkHXQl-13" target="B4HZqI1mZsQpKSkkHXQl-31" edge="1">
          <mxGeometry relative="1" as="geometry">
            <Array as="points">
              <mxPoint x="705" y="280" />
            </Array>
          </mxGeometry>
        </mxCell>
        <mxCell id="B4HZqI1mZsQpKSkkHXQl-34" value="tp" style="edgeLabel;html=1;align=center;verticalAlign=middle;resizable=0;points=[];" parent="B4HZqI1mZsQpKSkkHXQl-33" vertex="1" connectable="0">
          <mxGeometry x="-0.2011" y="-1" relative="1" as="geometry">
            <mxPoint as="offset" />
          </mxGeometry>
        </mxCell>
        <mxCell id="B4HZqI1mZsQpKSkkHXQl-13" value="trace_event_call" style="swimlane;fontStyle=1;align=center;verticalAlign=top;childLayout=stackLayout;horizontal=1;startSize=20;horizontalStack=0;resizeParent=1;resizeParentMax=0;resizeLast=0;collapsible=1;marginBottom=0;" parent="1" vertex="1">
          <mxGeometry x="441" y="280" width="200" height="28" as="geometry" />
        </mxCell>
        <mxCell id="B4HZqI1mZsQpKSkkHXQl-14" value="" style="line;strokeWidth=1;fillColor=none;align=left;verticalAlign=middle;spacingTop=-1;spacingLeft=3;spacingRight=3;rotatable=0;labelPosition=right;points=[];portConstraint=eastwest;" parent="B4HZqI1mZsQpKSkkHXQl-13" vertex="1">
          <mxGeometry y="20" width="200" height="8" as="geometry" />
        </mxCell>
        <mxCell id="B4HZqI1mZsQpKSkkHXQl-17" value="Extends" style="endArrow=block;endSize=16;endFill=0;html=1;exitX=0.5;exitY=0;exitDx=0;exitDy=0;" parent="1" source="B4HZqI1mZsQpKSkkHXQl-2" edge="1">
          <mxGeometry width="160" relative="1" as="geometry">
            <mxPoint x="523" y="390" as="sourcePoint" />
            <mxPoint x="470" y="310" as="targetPoint" />
          </mxGeometry>
        </mxCell>
        <mxCell id="B4HZqI1mZsQpKSkkHXQl-18" value="kretprobe" style="swimlane;fontStyle=1;align=center;verticalAlign=top;childLayout=stackLayout;horizontal=1;startSize=26;horizontalStack=0;resizeParent=1;resizeParentMax=0;resizeLast=0;collapsible=1;marginBottom=0;" parent="1" vertex="1">
          <mxGeometry x="98" y="220" width="130" height="34" as="geometry" />
        </mxCell>
        <mxCell id="B4HZqI1mZsQpKSkkHXQl-20" value="" style="line;strokeWidth=1;fillColor=none;align=left;verticalAlign=middle;spacingTop=-1;spacingLeft=3;spacingRight=3;rotatable=0;labelPosition=right;points=[];portConstraint=eastwest;" parent="B4HZqI1mZsQpKSkkHXQl-18" vertex="1">
          <mxGeometry y="26" width="130" height="8" as="geometry" />
        </mxCell>
        <mxCell id="B4HZqI1mZsQpKSkkHXQl-22" value="Extends" style="endArrow=block;endSize=16;endFill=0;html=1;exitX=0.5;exitY=0;exitDx=0;exitDy=0;entryX=0.501;entryY=0.845;entryDx=0;entryDy=0;entryPerimeter=0;" parent="1" source="B4HZqI1mZsQpKSkkHXQl-9" target="B4HZqI1mZsQpKSkkHXQl-20" edge="1">
          <mxGeometry width="160" relative="1" as="geometry">
            <mxPoint x="170" y="510" as="sourcePoint" />
            <mxPoint x="280" y="260" as="targetPoint" />
          </mxGeometry>
        </mxCell>
        <mxCell id="qIkF5-EqcUAHpWfbAgIs-50" style="edgeStyle=orthogonalEdgeStyle;rounded=0;orthogonalLoop=1;jettySize=auto;html=1;entryX=0.162;entryY=0;entryDx=0;entryDy=0;entryPerimeter=0;exitX=1;exitY=0.25;exitDx=0;exitDy=0;" parent="1" source="B4HZqI1mZsQpKSkkHXQl-23" target="B4HZqI1mZsQpKSkkHXQl-2" edge="1">
          <mxGeometry relative="1" as="geometry" />
        </mxCell>
        <mxCell id="qIkF5-EqcUAHpWfbAgIs-51" value="list" style="edgeLabel;html=1;align=center;verticalAlign=middle;resizable=0;points=[];" parent="qIkF5-EqcUAHpWfbAgIs-50" vertex="1" connectable="0">
          <mxGeometry x="-0.5682" y="-1" relative="1" as="geometry">
            <mxPoint x="-15" y="-10" as="offset" />
          </mxGeometry>
        </mxCell>
        <mxCell id="qIkF5-EqcUAHpWfbAgIs-52" value="probes" style="edgeLabel;html=1;align=center;verticalAlign=middle;resizable=0;points=[];" parent="qIkF5-EqcUAHpWfbAgIs-50" vertex="1" connectable="0">
          <mxGeometry x="0.7159" y="-2" relative="1" as="geometry">
            <mxPoint x="1" y="3" as="offset" />
          </mxGeometry>
        </mxCell>
        <mxCell id="B4HZqI1mZsQpKSkkHXQl-23" value="trace_probe" style="swimlane;fontStyle=1;align=center;verticalAlign=top;childLayout=stackLayout;horizontal=1;startSize=26;horizontalStack=0;resizeParent=1;resizeParentMax=0;resizeLast=0;collapsible=1;marginBottom=0;" parent="1" vertex="1">
          <mxGeometry x="244" y="220" width="130" height="34" as="geometry" />
        </mxCell>
        <mxCell id="B4HZqI1mZsQpKSkkHXQl-24" value="" style="line;strokeWidth=1;fillColor=none;align=left;verticalAlign=middle;spacingTop=-1;spacingLeft=3;spacingRight=3;rotatable=0;labelPosition=right;points=[];portConstraint=eastwest;" parent="B4HZqI1mZsQpKSkkHXQl-23" vertex="1">
          <mxGeometry y="26" width="130" height="8" as="geometry" />
        </mxCell>
        <mxCell id="B4HZqI1mZsQpKSkkHXQl-25" value="Extends" style="endArrow=block;endSize=16;endFill=0;html=1;exitX=0.5;exitY=0;exitDx=0;exitDy=0;entryX=0.5;entryY=1;entryDx=0;entryDy=0;" parent="1" source="B4HZqI1mZsQpKSkkHXQl-9" target="B4HZqI1mZsQpKSkkHXQl-23" edge="1">
          <mxGeometry width="160" relative="1" as="geometry">
            <mxPoint x="220" y="510" as="sourcePoint" />
            <mxPoint x="320" y="250" as="targetPoint" />
          </mxGeometry>
        </mxCell>
        <mxCell id="B4HZqI1mZsQpKSkkHXQl-82" style="edgeStyle=orthogonalEdgeStyle;rounded=0;orthogonalLoop=1;jettySize=auto;html=1;exitX=1;exitY=0.5;exitDx=0;exitDy=0;entryX=0;entryY=0.5;entryDx=0;entryDy=0;" parent="1" source="B4HZqI1mZsQpKSkkHXQl-26" target="qIkF5-EqcUAHpWfbAgIs-10" edge="1">
          <mxGeometry relative="1" as="geometry">
            <mxPoint x="800" y="143" as="targetPoint" />
          </mxGeometry>
        </mxCell>
        <mxCell id="B4HZqI1mZsQpKSkkHXQl-83" value="list" style="edgeLabel;html=1;align=center;verticalAlign=middle;resizable=0;points=[];" parent="B4HZqI1mZsQpKSkkHXQl-82" vertex="1" connectable="0">
          <mxGeometry x="0.3384" y="-2" relative="1" as="geometry">
            <mxPoint as="offset" />
          </mxGeometry>
        </mxCell>
        <mxCell id="B4HZqI1mZsQpKSkkHXQl-26" value="trace_event" style="swimlane;fontStyle=1;align=center;verticalAlign=top;childLayout=stackLayout;horizontal=1;startSize=26;horizontalStack=0;resizeParent=1;resizeParentMax=0;resizeLast=0;collapsible=1;marginBottom=0;" parent="1" vertex="1">
          <mxGeometry x="495.5" y="124" width="91" height="34" as="geometry" />
        </mxCell>
        <mxCell id="B4HZqI1mZsQpKSkkHXQl-28" value="" style="line;strokeWidth=1;fillColor=none;align=left;verticalAlign=middle;spacingTop=-1;spacingLeft=3;spacingRight=3;rotatable=0;labelPosition=right;points=[];portConstraint=eastwest;" parent="B4HZqI1mZsQpKSkkHXQl-26" vertex="1">
          <mxGeometry y="26" width="91" height="8" as="geometry" />
        </mxCell>
        <mxCell id="B4HZqI1mZsQpKSkkHXQl-30" value="Extends" style="endArrow=block;endSize=16;endFill=0;html=1;entryX=0.5;entryY=1;entryDx=0;entryDy=0;" parent="1" source="B4HZqI1mZsQpKSkkHXQl-13" target="B4HZqI1mZsQpKSkkHXQl-26" edge="1">
          <mxGeometry width="160" relative="1" as="geometry">
            <mxPoint x="770" y="360" as="sourcePoint" />
            <mxPoint x="519" y="218" as="targetPoint" />
          </mxGeometry>
        </mxCell>
        <mxCell id="B4HZqI1mZsQpKSkkHXQl-80" value="event" style="edgeLabel;html=1;align=center;verticalAlign=middle;resizable=0;points=[];" parent="B4HZqI1mZsQpKSkkHXQl-30" vertex="1" connectable="0">
          <mxGeometry x="0.2988" y="-2" relative="1" as="geometry">
            <mxPoint as="offset" />
          </mxGeometry>
        </mxCell>
        <mxCell id="B4HZqI1mZsQpKSkkHXQl-31" value="tracepoint" style="swimlane;fontStyle=1;align=center;verticalAlign=top;childLayout=stackLayout;horizontal=1;startSize=26;horizontalStack=0;resizeParent=1;resizeParentMax=0;resizeLast=0;collapsible=1;marginBottom=0;" parent="1" vertex="1">
          <mxGeometry x="625" y="186" width="160" height="34" as="geometry" />
        </mxCell>
        <mxCell id="B4HZqI1mZsQpKSkkHXQl-32" value="" style="line;strokeWidth=1;fillColor=none;align=left;verticalAlign=middle;spacingTop=-1;spacingLeft=3;spacingRight=3;rotatable=0;labelPosition=right;points=[];portConstraint=eastwest;" parent="B4HZqI1mZsQpKSkkHXQl-31" vertex="1">
          <mxGeometry y="26" width="160" height="8" as="geometry" />
        </mxCell>
        <mxCell id="B4HZqI1mZsQpKSkkHXQl-35" value="kprobe" style="swimlane;fontStyle=1;align=center;verticalAlign=top;childLayout=stackLayout;horizontal=1;startSize=26;horizontalStack=0;resizeParent=1;resizeParentMax=0;resizeLast=0;collapsible=1;marginBottom=0;" parent="1" vertex="1">
          <mxGeometry x="122" y="124" width="94" height="34" as="geometry" />
        </mxCell>
        <mxCell id="B4HZqI1mZsQpKSkkHXQl-36" value="" style="line;strokeWidth=1;fillColor=none;align=left;verticalAlign=middle;spacingTop=-1;spacingLeft=3;spacingRight=3;rotatable=0;labelPosition=right;points=[];portConstraint=eastwest;" parent="B4HZqI1mZsQpKSkkHXQl-35" vertex="1">
          <mxGeometry y="26" width="94" height="8" as="geometry" />
        </mxCell>
        <mxCell id="B4HZqI1mZsQpKSkkHXQl-37" value="Extends" style="endArrow=block;endSize=16;endFill=0;html=1;exitX=0.54;exitY=0.01;exitDx=0;exitDy=0;exitPerimeter=0;entryX=0.5;entryY=1;entryDx=0;entryDy=0;" parent="1" source="B4HZqI1mZsQpKSkkHXQl-18" target="B4HZqI1mZsQpKSkkHXQl-35" edge="1">
          <mxGeometry width="160" relative="1" as="geometry">
            <mxPoint x="260" y="100" as="sourcePoint" />
            <mxPoint x="420" y="100" as="targetPoint" />
          </mxGeometry>
        </mxCell>
        <mxCell id="B4HZqI1mZsQpKSkkHXQl-54" style="edgeStyle=orthogonalEdgeStyle;rounded=0;orthogonalLoop=1;jettySize=auto;html=1;entryX=0;entryY=0.5;entryDx=0;entryDy=0;" parent="1" source="B4HZqI1mZsQpKSkkHXQl-38" target="B4HZqI1mZsQpKSkkHXQl-50" edge="1">
          <mxGeometry relative="1" as="geometry" />
        </mxCell>
        <mxCell id="B4HZqI1mZsQpKSkkHXQl-38" value="" style="rounded=0;whiteSpace=wrap;html=1;" parent="1" vertex="1">
          <mxGeometry x="-40" y="36" width="100" height="30" as="geometry" />
        </mxCell>
        <mxCell id="B4HZqI1mZsQpKSkkHXQl-57" style="edgeStyle=orthogonalEdgeStyle;rounded=0;orthogonalLoop=1;jettySize=auto;html=1;" parent="1" source="B4HZqI1mZsQpKSkkHXQl-39" target="B4HZqI1mZsQpKSkkHXQl-46" edge="1">
          <mxGeometry relative="1" as="geometry" />
        </mxCell>
        <mxCell id="B4HZqI1mZsQpKSkkHXQl-39" value="" style="rounded=0;whiteSpace=wrap;html=1;" parent="1" vertex="1">
          <mxGeometry x="-40" y="66" width="100" height="30" as="geometry" />
        </mxCell>
        <mxCell id="B4HZqI1mZsQpKSkkHXQl-40" value="" style="rounded=0;whiteSpace=wrap;html=1;" parent="1" vertex="1">
          <mxGeometry x="-40" y="96" width="100" height="30" as="geometry" />
        </mxCell>
        <mxCell id="B4HZqI1mZsQpKSkkHXQl-45" style="edgeStyle=orthogonalEdgeStyle;rounded=0;orthogonalLoop=1;jettySize=auto;html=1;entryX=0;entryY=0.5;entryDx=0;entryDy=0;" parent="1" source="B4HZqI1mZsQpKSkkHXQl-41" target="B4HZqI1mZsQpKSkkHXQl-35" edge="1">
          <mxGeometry relative="1" as="geometry" />
        </mxCell>
        <mxCell id="B4HZqI1mZsQpKSkkHXQl-41" value="" style="rounded=0;whiteSpace=wrap;html=1;" parent="1" vertex="1">
          <mxGeometry x="-40" y="126" width="100" height="30" as="geometry" />
        </mxCell>
        <mxCell id="B4HZqI1mZsQpKSkkHXQl-42" value="......" style="rounded=0;whiteSpace=wrap;html=1;" parent="1" vertex="1">
          <mxGeometry x="-40" y="156" width="100" height="30" as="geometry" />
        </mxCell>
        <mxCell id="B4HZqI1mZsQpKSkkHXQl-44" value="kprobe_table" style="text;html=1;strokeColor=none;fillColor=none;align=center;verticalAlign=middle;whiteSpace=wrap;rounded=0;" parent="1" vertex="1">
          <mxGeometry x="-30" y="10" width="80" height="20" as="geometry" />
        </mxCell>
        <mxCell id="B4HZqI1mZsQpKSkkHXQl-56" style="edgeStyle=orthogonalEdgeStyle;rounded=0;orthogonalLoop=1;jettySize=auto;html=1;" parent="1" source="B4HZqI1mZsQpKSkkHXQl-46" target="B4HZqI1mZsQpKSkkHXQl-48" edge="1">
          <mxGeometry relative="1" as="geometry" />
        </mxCell>
        <mxCell id="B4HZqI1mZsQpKSkkHXQl-46" value="kprobe" style="swimlane;fontStyle=1;align=center;verticalAlign=top;childLayout=stackLayout;horizontal=1;startSize=26;horizontalStack=0;resizeParent=1;resizeParentMax=0;resizeLast=0;collapsible=1;marginBottom=0;" parent="1" vertex="1">
          <mxGeometry x="122" y="64" width="94" height="34" as="geometry" />
        </mxCell>
        <mxCell id="B4HZqI1mZsQpKSkkHXQl-47" value="" style="line;strokeWidth=1;fillColor=none;align=left;verticalAlign=middle;spacingTop=-1;spacingLeft=3;spacingRight=3;rotatable=0;labelPosition=right;points=[];portConstraint=eastwest;" parent="B4HZqI1mZsQpKSkkHXQl-46" vertex="1">
          <mxGeometry y="26" width="94" height="8" as="geometry" />
        </mxCell>
        <mxCell id="B4HZqI1mZsQpKSkkHXQl-48" value="kprobe" style="swimlane;fontStyle=1;align=center;verticalAlign=top;childLayout=stackLayout;horizontal=1;startSize=26;horizontalStack=0;resizeParent=1;resizeParentMax=0;resizeLast=0;collapsible=1;marginBottom=0;" parent="1" vertex="1">
          <mxGeometry x="244" y="64" width="94" height="34" as="geometry" />
        </mxCell>
        <mxCell id="B4HZqI1mZsQpKSkkHXQl-49" value="" style="line;strokeWidth=1;fillColor=none;align=left;verticalAlign=middle;spacingTop=-1;spacingLeft=3;spacingRight=3;rotatable=0;labelPosition=right;points=[];portConstraint=eastwest;" parent="B4HZqI1mZsQpKSkkHXQl-48" vertex="1">
          <mxGeometry y="26" width="94" height="8" as="geometry" />
        </mxCell>
        <mxCell id="B4HZqI1mZsQpKSkkHXQl-55" style="edgeStyle=orthogonalEdgeStyle;rounded=0;orthogonalLoop=1;jettySize=auto;html=1;exitX=1;exitY=0.5;exitDx=0;exitDy=0;entryX=0;entryY=0.5;entryDx=0;entryDy=0;" parent="1" source="B4HZqI1mZsQpKSkkHXQl-50" target="B4HZqI1mZsQpKSkkHXQl-52" edge="1">
          <mxGeometry relative="1" as="geometry" />
        </mxCell>
        <mxCell id="B4HZqI1mZsQpKSkkHXQl-50" value="kprobe" style="swimlane;fontStyle=1;align=center;verticalAlign=top;childLayout=stackLayout;horizontal=1;startSize=26;horizontalStack=0;resizeParent=1;resizeParentMax=0;resizeLast=0;collapsible=1;marginBottom=0;" parent="1" vertex="1">
          <mxGeometry x="122" y="26" width="94" height="34" as="geometry" />
        </mxCell>
        <mxCell id="B4HZqI1mZsQpKSkkHXQl-51" value="" style="line;strokeWidth=1;fillColor=none;align=left;verticalAlign=middle;spacingTop=-1;spacingLeft=3;spacingRight=3;rotatable=0;labelPosition=right;points=[];portConstraint=eastwest;" parent="B4HZqI1mZsQpKSkkHXQl-50" vertex="1">
          <mxGeometry y="26" width="94" height="8" as="geometry" />
        </mxCell>
        <mxCell id="B4HZqI1mZsQpKSkkHXQl-52" value="kprobe" style="swimlane;fontStyle=1;align=center;verticalAlign=top;childLayout=stackLayout;horizontal=1;startSize=26;horizontalStack=0;resizeParent=1;resizeParentMax=0;resizeLast=0;collapsible=1;marginBottom=0;" parent="1" vertex="1">
          <mxGeometry x="244" y="26" width="94" height="34" as="geometry" />
        </mxCell>
        <mxCell id="B4HZqI1mZsQpKSkkHXQl-53" value="" style="line;strokeWidth=1;fillColor=none;align=left;verticalAlign=middle;spacingTop=-1;spacingLeft=3;spacingRight=3;rotatable=0;labelPosition=right;points=[];portConstraint=eastwest;" parent="B4HZqI1mZsQpKSkkHXQl-52" vertex="1">
          <mxGeometry y="26" width="94" height="8" as="geometry" />
        </mxCell>
        <mxCell id="B4HZqI1mZsQpKSkkHXQl-60" style="edgeStyle=orthogonalEdgeStyle;rounded=0;orthogonalLoop=1;jettySize=auto;html=1;entryX=0;entryY=0.5;entryDx=0;entryDy=0;" parent="1" source="B4HZqI1mZsQpKSkkHXQl-61" target="B4HZqI1mZsQpKSkkHXQl-75" edge="1">
          <mxGeometry relative="1" as="geometry" />
        </mxCell>
        <mxCell id="B4HZqI1mZsQpKSkkHXQl-61" value="" style="rounded=0;whiteSpace=wrap;html=1;" parent="1" vertex="1">
          <mxGeometry x="347" y="36" width="100" height="30" as="geometry" />
        </mxCell>
        <mxCell id="B4HZqI1mZsQpKSkkHXQl-62" style="edgeStyle=orthogonalEdgeStyle;rounded=0;orthogonalLoop=1;jettySize=auto;html=1;" parent="1" source="B4HZqI1mZsQpKSkkHXQl-63" target="B4HZqI1mZsQpKSkkHXQl-70" edge="1">
          <mxGeometry relative="1" as="geometry" />
        </mxCell>
        <mxCell id="B4HZqI1mZsQpKSkkHXQl-63" value="" style="rounded=0;whiteSpace=wrap;html=1;" parent="1" vertex="1">
          <mxGeometry x="347" y="66" width="100" height="30" as="geometry" />
        </mxCell>
        <mxCell id="B4HZqI1mZsQpKSkkHXQl-64" value="" style="rounded=0;whiteSpace=wrap;html=1;" parent="1" vertex="1">
          <mxGeometry x="347" y="96" width="100" height="30" as="geometry" />
        </mxCell>
        <mxCell id="B4HZqI1mZsQpKSkkHXQl-65" style="edgeStyle=orthogonalEdgeStyle;rounded=0;orthogonalLoop=1;jettySize=auto;html=1;entryX=0;entryY=0.5;entryDx=0;entryDy=0;" parent="1" source="B4HZqI1mZsQpKSkkHXQl-66" target="B4HZqI1mZsQpKSkkHXQl-26" edge="1">
          <mxGeometry relative="1" as="geometry">
            <mxPoint x="509" y="141" as="targetPoint" />
          </mxGeometry>
        </mxCell>
        <mxCell id="B4HZqI1mZsQpKSkkHXQl-66" value="" style="rounded=0;whiteSpace=wrap;html=1;" parent="1" vertex="1">
          <mxGeometry x="347" y="126" width="100" height="30" as="geometry" />
        </mxCell>
        <mxCell id="B4HZqI1mZsQpKSkkHXQl-67" value="......" style="rounded=0;whiteSpace=wrap;html=1;" parent="1" vertex="1">
          <mxGeometry x="347" y="156" width="100" height="30" as="geometry" />
        </mxCell>
        <mxCell id="B4HZqI1mZsQpKSkkHXQl-69" style="edgeStyle=orthogonalEdgeStyle;rounded=0;orthogonalLoop=1;jettySize=auto;html=1;" parent="1" source="B4HZqI1mZsQpKSkkHXQl-70" target="B4HZqI1mZsQpKSkkHXQl-72" edge="1">
          <mxGeometry relative="1" as="geometry" />
        </mxCell>
        <mxCell id="B4HZqI1mZsQpKSkkHXQl-70" value="trace_event" style="swimlane;fontStyle=1;align=center;verticalAlign=top;childLayout=stackLayout;horizontal=1;startSize=26;horizontalStack=0;resizeParent=1;resizeParentMax=0;resizeLast=0;collapsible=1;marginBottom=0;" parent="1" vertex="1">
          <mxGeometry x="509" y="64" width="94" height="34" as="geometry" />
        </mxCell>
        <mxCell id="B4HZqI1mZsQpKSkkHXQl-71" value="" style="line;strokeWidth=1;fillColor=none;align=left;verticalAlign=middle;spacingTop=-1;spacingLeft=3;spacingRight=3;rotatable=0;labelPosition=right;points=[];portConstraint=eastwest;" parent="B4HZqI1mZsQpKSkkHXQl-70" vertex="1">
          <mxGeometry y="26" width="94" height="8" as="geometry" />
        </mxCell>
        <mxCell id="B4HZqI1mZsQpKSkkHXQl-72" value="trace_event" style="swimlane;fontStyle=1;align=center;verticalAlign=top;childLayout=stackLayout;horizontal=1;startSize=26;horizontalStack=0;resizeParent=1;resizeParentMax=0;resizeLast=0;collapsible=1;marginBottom=0;" parent="1" vertex="1">
          <mxGeometry x="631" y="64" width="94" height="34" as="geometry" />
        </mxCell>
        <mxCell id="B4HZqI1mZsQpKSkkHXQl-73" value="" style="line;strokeWidth=1;fillColor=none;align=left;verticalAlign=middle;spacingTop=-1;spacingLeft=3;spacingRight=3;rotatable=0;labelPosition=right;points=[];portConstraint=eastwest;" parent="B4HZqI1mZsQpKSkkHXQl-72" vertex="1">
          <mxGeometry y="26" width="94" height="8" as="geometry" />
        </mxCell>
        <mxCell id="B4HZqI1mZsQpKSkkHXQl-74" style="edgeStyle=orthogonalEdgeStyle;rounded=0;orthogonalLoop=1;jettySize=auto;html=1;exitX=1;exitY=0.5;exitDx=0;exitDy=0;entryX=0;entryY=0.5;entryDx=0;entryDy=0;" parent="1" source="B4HZqI1mZsQpKSkkHXQl-75" target="B4HZqI1mZsQpKSkkHXQl-77" edge="1">
          <mxGeometry relative="1" as="geometry" />
        </mxCell>
        <mxCell id="B4HZqI1mZsQpKSkkHXQl-75" value="trace_event" style="swimlane;fontStyle=1;align=center;verticalAlign=top;childLayout=stackLayout;horizontal=1;startSize=26;horizontalStack=0;resizeParent=1;resizeParentMax=0;resizeLast=0;collapsible=1;marginBottom=0;" parent="1" vertex="1">
          <mxGeometry x="509" y="24" width="94" height="34" as="geometry" />
        </mxCell>
        <mxCell id="B4HZqI1mZsQpKSkkHXQl-76" value="" style="line;strokeWidth=1;fillColor=none;align=left;verticalAlign=middle;spacingTop=-1;spacingLeft=3;spacingRight=3;rotatable=0;labelPosition=right;points=[];portConstraint=eastwest;" parent="B4HZqI1mZsQpKSkkHXQl-75" vertex="1">
          <mxGeometry y="26" width="94" height="8" as="geometry" />
        </mxCell>
        <mxCell id="B4HZqI1mZsQpKSkkHXQl-92" style="edgeStyle=orthogonalEdgeStyle;rounded=0;orthogonalLoop=1;jettySize=auto;html=1;entryX=0;entryY=0.5;entryDx=0;entryDy=0;exitX=0.5;exitY=0;exitDx=0;exitDy=0;" parent="1" source="B4HZqI1mZsQpKSkkHXQl-26" edge="1">
          <mxGeometry relative="1" as="geometry">
            <mxPoint x="600" y="124" as="sourcePoint" />
            <mxPoint x="800" y="105" as="targetPoint" />
            <Array as="points">
              <mxPoint x="555" y="105" />
            </Array>
          </mxGeometry>
        </mxCell>
        <mxCell id="qejxYZ5yiSHPvV75bgWD-1" value="funcs" style="edgeLabel;html=1;align=center;verticalAlign=middle;resizable=0;points=[];" parent="B4HZqI1mZsQpKSkkHXQl-92" vertex="1" connectable="0">
          <mxGeometry x="0.3771" y="-2" relative="1" as="geometry">
            <mxPoint x="1" as="offset" />
          </mxGeometry>
        </mxCell>
        <mxCell id="B4HZqI1mZsQpKSkkHXQl-77" value="trace_event" style="swimlane;fontStyle=1;align=center;verticalAlign=top;childLayout=stackLayout;horizontal=1;startSize=26;horizontalStack=0;resizeParent=1;resizeParentMax=0;resizeLast=0;collapsible=1;marginBottom=0;" parent="1" vertex="1">
          <mxGeometry x="631" y="24" width="94" height="34" as="geometry" />
        </mxCell>
        <mxCell id="B4HZqI1mZsQpKSkkHXQl-78" value="" style="line;strokeWidth=1;fillColor=none;align=left;verticalAlign=middle;spacingTop=-1;spacingLeft=3;spacingRight=3;rotatable=0;labelPosition=right;points=[];portConstraint=eastwest;" parent="B4HZqI1mZsQpKSkkHXQl-77" vertex="1">
          <mxGeometry y="26" width="94" height="8" as="geometry" />
        </mxCell>
        <mxCell id="B4HZqI1mZsQpKSkkHXQl-79" value="event_hash" style="text;html=1;strokeColor=none;fillColor=none;align=center;verticalAlign=middle;whiteSpace=wrap;rounded=0;" parent="1" vertex="1">
          <mxGeometry x="357" y="10" width="80" height="20" as="geometry" />
        </mxCell>
        <mxCell id="B4HZqI1mZsQpKSkkHXQl-84" value="trace_event_class" style="swimlane;fontStyle=1;align=center;verticalAlign=top;childLayout=stackLayout;horizontal=1;startSize=26;horizontalStack=0;resizeParent=1;resizeParentMax=0;resizeLast=0;collapsible=1;marginBottom=0;" parent="1" vertex="1">
          <mxGeometry x="800" y="186" width="160" height="34" as="geometry" />
        </mxCell>
        <mxCell id="B4HZqI1mZsQpKSkkHXQl-86" value="" style="line;strokeWidth=1;fillColor=none;align=left;verticalAlign=middle;spacingTop=-1;spacingLeft=3;spacingRight=3;rotatable=0;labelPosition=right;points=[];portConstraint=eastwest;" parent="B4HZqI1mZsQpKSkkHXQl-84" vertex="1">
          <mxGeometry y="26" width="160" height="8" as="geometry" />
        </mxCell>
        <mxCell id="B4HZqI1mZsQpKSkkHXQl-88" style="edgeStyle=orthogonalEdgeStyle;rounded=0;orthogonalLoop=1;jettySize=auto;html=1;entryX=0.5;entryY=1;entryDx=0;entryDy=0;exitX=1;exitY=0.5;exitDx=0;exitDy=0;" parent="1" source="B4HZqI1mZsQpKSkkHXQl-13" target="B4HZqI1mZsQpKSkkHXQl-84" edge="1">
          <mxGeometry relative="1" as="geometry" />
        </mxCell>
        <mxCell id="B4HZqI1mZsQpKSkkHXQl-89" value="class" style="edgeLabel;html=1;align=center;verticalAlign=middle;resizable=0;points=[];" parent="B4HZqI1mZsQpKSkkHXQl-88" vertex="1" connectable="0">
          <mxGeometry x="0.0473" relative="1" as="geometry">
            <mxPoint as="offset" />
          </mxGeometry>
        </mxCell>
        <mxCell id="B4HZqI1mZsQpKSkkHXQl-90" value="trace_event_functions" style="swimlane;fontStyle=1;align=center;verticalAlign=top;childLayout=stackLayout;horizontal=1;startSize=26;horizontalStack=0;resizeParent=1;resizeParentMax=0;resizeLast=0;collapsible=1;marginBottom=0;" parent="1" vertex="1">
          <mxGeometry x="800" y="90" width="160" height="34" as="geometry" />
        </mxCell>
        <mxCell id="B4HZqI1mZsQpKSkkHXQl-91" value="" style="line;strokeWidth=1;fillColor=none;align=left;verticalAlign=middle;spacingTop=-1;spacingLeft=3;spacingRight=3;rotatable=0;labelPosition=right;points=[];portConstraint=eastwest;" parent="B4HZqI1mZsQpKSkkHXQl-90" vertex="1">
          <mxGeometry y="26" width="160" height="8" as="geometry" />
        </mxCell>
        <mxCell id="B4HZqI1mZsQpKSkkHXQl-97" style="edgeStyle=orthogonalEdgeStyle;rounded=0;orthogonalLoop=1;jettySize=auto;html=1;exitX=1;exitY=1;exitDx=0;exitDy=0;entryX=0;entryY=0.5;entryDx=0;entryDy=0;" parent="1" source="B4HZqI1mZsQpKSkkHXQl-13" target="qIkF5-EqcUAHpWfbAgIs-29" edge="1">
          <mxGeometry relative="1" as="geometry">
            <mxPoint x="610" y="361.65999999999997" as="sourcePoint" />
            <mxPoint x="930" y="315" as="targetPoint" />
            <Array as="points">
              <mxPoint x="641" y="314" />
              <mxPoint x="930" y="314" />
            </Array>
          </mxGeometry>
        </mxCell>
        <mxCell id="B4HZqI1mZsQpKSkkHXQl-98" value="list" style="edgeLabel;html=1;align=center;verticalAlign=middle;resizable=0;points=[];" parent="B4HZqI1mZsQpKSkkHXQl-97" vertex="1" connectable="0">
          <mxGeometry x="0.3384" y="-2" relative="1" as="geometry">
            <mxPoint x="-15" y="-2" as="offset" />
          </mxGeometry>
        </mxCell>
        <mxCell id="qIkF5-EqcUAHpWfbAgIs-7" style="edgeStyle=orthogonalEdgeStyle;rounded=0;orthogonalLoop=1;jettySize=auto;html=1;entryX=0;entryY=0.5;entryDx=0;entryDy=0;" parent="1" source="qIkF5-EqcUAHpWfbAgIs-3" target="qIkF5-EqcUAHpWfbAgIs-4" edge="1">
          <mxGeometry relative="1" as="geometry" />
        </mxCell>
        <mxCell id="qIkF5-EqcUAHpWfbAgIs-30" value="list" style="edgeLabel;html=1;align=center;verticalAlign=middle;resizable=0;points=[];" parent="qIkF5-EqcUAHpWfbAgIs-7" vertex="1" connectable="0">
          <mxGeometry x="-0.2387" y="2" relative="1" as="geometry">
            <mxPoint as="offset" />
          </mxGeometry>
        </mxCell>
        <mxCell id="qIkF5-EqcUAHpWfbAgIs-9" style="edgeStyle=orthogonalEdgeStyle;rounded=0;orthogonalLoop=1;jettySize=auto;html=1;exitX=0.327;exitY=-0.074;exitDx=0;exitDy=0;exitPerimeter=0;" parent="1" source="qIkF5-EqcUAHpWfbAgIs-3" edge="1">
          <mxGeometry relative="1" as="geometry">
            <mxPoint x="630" y="310" as="targetPoint" />
          </mxGeometry>
        </mxCell>
        <mxCell id="qIkF5-EqcUAHpWfbAgIs-11" value="event_call&amp;nbsp;" style="edgeLabel;html=1;align=center;verticalAlign=middle;resizable=0;points=[];" parent="qIkF5-EqcUAHpWfbAgIs-9" vertex="1" connectable="0">
          <mxGeometry x="0.3429" y="3" relative="1" as="geometry">
            <mxPoint x="4" y="18" as="offset" />
          </mxGeometry>
        </mxCell>
        <mxCell id="qIkF5-EqcUAHpWfbAgIs-40" style="edgeStyle=orthogonalEdgeStyle;rounded=0;orthogonalLoop=1;jettySize=auto;html=1;entryX=0.4;entryY=0;entryDx=0;entryDy=0;entryPerimeter=0;exitX=1;exitY=0.75;exitDx=0;exitDy=0;" parent="1" source="qIkF5-EqcUAHpWfbAgIs-3" target="qIkF5-EqcUAHpWfbAgIs-37" edge="1">
          <mxGeometry relative="1" as="geometry" />
        </mxCell>
        <mxCell id="qIkF5-EqcUAHpWfbAgIs-41" value="event_dir" style="edgeLabel;html=1;align=center;verticalAlign=middle;resizable=0;points=[];" parent="qIkF5-EqcUAHpWfbAgIs-40" vertex="1" connectable="0">
          <mxGeometry x="-0.0768" y="-2" relative="1" as="geometry">
            <mxPoint y="7" as="offset" />
          </mxGeometry>
        </mxCell>
        <mxCell id="qIkF5-EqcUAHpWfbAgIs-3" value="&lt;div style=&quot;text-align: left&quot;&gt;trace_array&lt;/div&gt;" style="rounded=0;whiteSpace=wrap;html=1;" parent="1" vertex="1">
          <mxGeometry x="580.5" y="380" width="149.5" height="29" as="geometry" />
        </mxCell>
        <mxCell id="qIkF5-EqcUAHpWfbAgIs-4" value="&lt;span style=&quot;color: rgb(0, 0, 0); font-family: helvetica; font-size: 12px; font-style: normal; font-weight: 400; letter-spacing: normal; text-align: left; text-indent: 0px; text-transform: none; word-spacing: 0px; background-color: rgb(248, 249, 250); display: inline; float: none;&quot;&gt;ftrace_trace_arrays&lt;/span&gt;" style="text;whiteSpace=wrap;html=1;" parent="1" vertex="1">
          <mxGeometry x="920" y="379" width="130" height="30" as="geometry" />
        </mxCell>
        <mxCell id="qIkF5-EqcUAHpWfbAgIs-21" style="edgeStyle=orthogonalEdgeStyle;rounded=0;orthogonalLoop=1;jettySize=auto;html=1;" parent="1" source="qIkF5-EqcUAHpWfbAgIs-5" edge="1">
          <mxGeometry relative="1" as="geometry">
            <mxPoint x="600" y="410" as="targetPoint" />
          </mxGeometry>
        </mxCell>
        <mxCell id="qIkF5-EqcUAHpWfbAgIs-22" value="list" style="edgeLabel;html=1;align=center;verticalAlign=middle;resizable=0;points=[];" parent="qIkF5-EqcUAHpWfbAgIs-21" vertex="1" connectable="0">
          <mxGeometry x="-0.3602" y="1" relative="1" as="geometry">
            <mxPoint y="9" as="offset" />
          </mxGeometry>
        </mxCell>
        <mxCell id="qIkF5-EqcUAHpWfbAgIs-23" value="events" style="edgeLabel;html=1;align=center;verticalAlign=middle;resizable=0;points=[];" parent="qIkF5-EqcUAHpWfbAgIs-21" vertex="1" connectable="0">
          <mxGeometry x="0.23" y="1" relative="1" as="geometry">
            <mxPoint y="-7" as="offset" />
          </mxGeometry>
        </mxCell>
        <mxCell id="qIkF5-EqcUAHpWfbAgIs-31" style="edgeStyle=orthogonalEdgeStyle;rounded=0;orthogonalLoop=1;jettySize=auto;html=1;exitX=0.75;exitY=0;exitDx=0;exitDy=0;" parent="1" source="qIkF5-EqcUAHpWfbAgIs-5" edge="1">
          <mxGeometry relative="1" as="geometry">
            <mxPoint x="624" y="410" as="targetPoint" />
            <Array as="points">
              <mxPoint x="606" y="470" />
              <mxPoint x="624" y="470" />
            </Array>
          </mxGeometry>
        </mxCell>
        <mxCell id="qIkF5-EqcUAHpWfbAgIs-32" value="tr" style="edgeLabel;html=1;align=center;verticalAlign=middle;resizable=0;points=[];" parent="qIkF5-EqcUAHpWfbAgIs-31" vertex="1" connectable="0">
          <mxGeometry x="-0.6906" y="-1" relative="1" as="geometry">
            <mxPoint x="13" y="-17" as="offset" />
          </mxGeometry>
        </mxCell>
        <mxCell id="qIkF5-EqcUAHpWfbAgIs-35" style="edgeStyle=orthogonalEdgeStyle;rounded=0;orthogonalLoop=1;jettySize=auto;html=1;" parent="1" source="qIkF5-EqcUAHpWfbAgIs-5" target="qIkF5-EqcUAHpWfbAgIs-24" edge="1">
          <mxGeometry relative="1" as="geometry" />
        </mxCell>
        <mxCell id="qIkF5-EqcUAHpWfbAgIs-36" value="system" style="edgeLabel;html=1;align=center;verticalAlign=middle;resizable=0;points=[];" parent="qIkF5-EqcUAHpWfbAgIs-35" vertex="1" connectable="0">
          <mxGeometry x="0.1888" y="-1" relative="1" as="geometry">
            <mxPoint x="-7" y="-11" as="offset" />
          </mxGeometry>
        </mxCell>
        <mxCell id="qIkF5-EqcUAHpWfbAgIs-42" style="edgeStyle=orthogonalEdgeStyle;rounded=0;orthogonalLoop=1;jettySize=auto;html=1;entryX=0.5;entryY=1;entryDx=0;entryDy=0;exitX=0.107;exitY=-0.072;exitDx=0;exitDy=0;exitPerimeter=0;" parent="1" source="qIkF5-EqcUAHpWfbAgIs-5" target="B4HZqI1mZsQpKSkkHXQl-13" edge="1">
          <mxGeometry relative="1" as="geometry" />
        </mxCell>
        <mxCell id="qIkF5-EqcUAHpWfbAgIs-43" value="event_call" style="edgeLabel;html=1;align=center;verticalAlign=middle;resizable=0;points=[];" parent="qIkF5-EqcUAHpWfbAgIs-42" vertex="1" connectable="0">
          <mxGeometry x="0.6602" y="-2" relative="1" as="geometry">
            <mxPoint x="-12" y="111" as="offset" />
          </mxGeometry>
        </mxCell>
        <mxCell id="qIkF5-EqcUAHpWfbAgIs-5" value="&lt;div style=&quot;text-align: left&quot;&gt;&lt;span&gt;trace_event_file&amp;nbsp;&lt;/span&gt;&lt;/div&gt;" style="rounded=0;whiteSpace=wrap;html=1;" parent="1" vertex="1">
          <mxGeometry x="531" y="490" width="100" height="30" as="geometry" />
        </mxCell>
        <mxCell id="qIkF5-EqcUAHpWfbAgIs-10" value="&lt;span style=&quot;color: rgb(0, 0, 0); font-family: helvetica; font-size: 12px; font-style: normal; font-weight: 400; letter-spacing: normal; text-align: center; text-indent: 0px; text-transform: none; word-spacing: 0px; background-color: rgb(248, 249, 250); display: inline; float: none;&quot;&gt;ftrace_event_list&lt;/span&gt;" style="text;whiteSpace=wrap;html=1;" parent="1" vertex="1">
          <mxGeometry x="905" y="126" width="110" height="30" as="geometry" />
        </mxCell>
        <mxCell id="qIkF5-EqcUAHpWfbAgIs-25" style="edgeStyle=orthogonalEdgeStyle;rounded=0;orthogonalLoop=1;jettySize=auto;html=1;exitX=0.377;exitY=-0.044;exitDx=0;exitDy=0;exitPerimeter=0;entryX=0.895;entryY=1.023;entryDx=0;entryDy=0;entryPerimeter=0;" parent="1" source="qIkF5-EqcUAHpWfbAgIs-24" target="qIkF5-EqcUAHpWfbAgIs-3" edge="1">
          <mxGeometry relative="1" as="geometry">
            <mxPoint x="705" y="410" as="targetPoint" />
          </mxGeometry>
        </mxCell>
        <mxCell id="qIkF5-EqcUAHpWfbAgIs-27" value="list" style="edgeLabel;html=1;align=center;verticalAlign=middle;resizable=0;points=[];" parent="qIkF5-EqcUAHpWfbAgIs-25" vertex="1" connectable="0">
          <mxGeometry x="-0.7015" y="-1" relative="1" as="geometry">
            <mxPoint as="offset" />
          </mxGeometry>
        </mxCell>
        <mxCell id="qIkF5-EqcUAHpWfbAgIs-28" value="systems" style="edgeLabel;html=1;align=center;verticalAlign=middle;resizable=0;points=[];" parent="qIkF5-EqcUAHpWfbAgIs-25" vertex="1" connectable="0">
          <mxGeometry x="0.5483" relative="1" as="geometry">
            <mxPoint as="offset" />
          </mxGeometry>
        </mxCell>
        <mxCell id="qIkF5-EqcUAHpWfbAgIs-38" style="edgeStyle=orthogonalEdgeStyle;rounded=0;orthogonalLoop=1;jettySize=auto;html=1;entryX=0;entryY=0.5;entryDx=0;entryDy=0;" parent="1" source="qIkF5-EqcUAHpWfbAgIs-24" target="qIkF5-EqcUAHpWfbAgIs-37" edge="1">
          <mxGeometry relative="1" as="geometry" />
        </mxCell>
        <mxCell id="qIkF5-EqcUAHpWfbAgIs-39" value="entry" style="edgeLabel;html=1;align=center;verticalAlign=middle;resizable=0;points=[];" parent="qIkF5-EqcUAHpWfbAgIs-38" vertex="1" connectable="0">
          <mxGeometry x="0.1636" relative="1" as="geometry">
            <mxPoint x="-6" y="-9" as="offset" />
          </mxGeometry>
        </mxCell>
        <mxCell id="qIkF5-EqcUAHpWfbAgIs-24" value="&lt;div style=&quot;text-align: left&quot;&gt;trace_subsystem_dir&lt;br&gt;&lt;/div&gt;" style="rounded=0;whiteSpace=wrap;html=1;" parent="1" vertex="1">
          <mxGeometry x="679" y="490" width="126" height="30" as="geometry" />
        </mxCell>
        <mxCell id="qIkF5-EqcUAHpWfbAgIs-29" value="&lt;span style=&quot;color: rgb(0, 0, 0); font-family: helvetica; font-size: 12px; font-style: normal; font-weight: 400; letter-spacing: normal; text-align: center; text-indent: 0px; text-transform: none; word-spacing: 0px; background-color: rgb(248, 249, 250); display: inline; float: none;&quot;&gt;ftrace_events&lt;/span&gt;" style="text;whiteSpace=wrap;html=1;" parent="1" vertex="1">
          <mxGeometry x="910" y="300" width="100" height="30" as="geometry" />
        </mxCell>
        <mxCell id="qIkF5-EqcUAHpWfbAgIs-33" style="edgeStyle=orthogonalEdgeStyle;rounded=0;orthogonalLoop=1;jettySize=auto;html=1;exitX=0.124;exitY=-0.027;exitDx=0;exitDy=0;entryX=0.695;entryY=1.034;entryDx=0;entryDy=0;entryPerimeter=0;exitPerimeter=0;" parent="1" source="qIkF5-EqcUAHpWfbAgIs-24" target="qIkF5-EqcUAHpWfbAgIs-3" edge="1">
          <mxGeometry relative="1" as="geometry">
            <mxPoint x="635" y="500" as="sourcePoint" />
            <mxPoint x="634" y="420" as="targetPoint" />
          </mxGeometry>
        </mxCell>
        <mxCell id="qIkF5-EqcUAHpWfbAgIs-34" value="tr" style="edgeLabel;html=1;align=center;verticalAlign=middle;resizable=0;points=[];" parent="qIkF5-EqcUAHpWfbAgIs-33" vertex="1" connectable="0">
          <mxGeometry x="-0.6906" y="-1" relative="1" as="geometry">
            <mxPoint x="-1" y="-17" as="offset" />
          </mxGeometry>
        </mxCell>
        <mxCell id="qIkF5-EqcUAHpWfbAgIs-37" value="&lt;div style=&quot;text-align: left&quot;&gt;dentry&lt;br&gt;&lt;/div&gt;" style="rounded=0;whiteSpace=wrap;html=1;" parent="1" vertex="1">
          <mxGeometry x="860" y="490" width="100" height="30" as="geometry" />
        </mxCell>
        <mxCell id="qIkF5-EqcUAHpWfbAgIs-45" style="edgeStyle=orthogonalEdgeStyle;rounded=0;orthogonalLoop=1;jettySize=auto;html=1;" parent="1" source="qIkF5-EqcUAHpWfbAgIs-44" edge="1">
          <mxGeometry relative="1" as="geometry">
            <mxPoint x="424" y="410" as="targetPoint" />
          </mxGeometry>
        </mxCell>
        <mxCell id="qIkF5-EqcUAHpWfbAgIs-46" value="list" style="edgeLabel;html=1;align=center;verticalAlign=middle;resizable=0;points=[];" parent="qIkF5-EqcUAHpWfbAgIs-45" vertex="1" connectable="0">
          <mxGeometry x="-0.675" relative="1" as="geometry">
            <mxPoint as="offset" />
          </mxGeometry>
        </mxCell>
        <mxCell id="qIkF5-EqcUAHpWfbAgIs-47" value="files" style="edgeLabel;html=1;align=center;verticalAlign=middle;resizable=0;points=[];" parent="qIkF5-EqcUAHpWfbAgIs-45" vertex="1" connectable="0">
          <mxGeometry x="0.5777" relative="1" as="geometry">
            <mxPoint as="offset" />
          </mxGeometry>
        </mxCell>
        <mxCell id="qIkF5-EqcUAHpWfbAgIs-48" style="edgeStyle=orthogonalEdgeStyle;rounded=0;orthogonalLoop=1;jettySize=auto;html=1;entryX=0;entryY=0.5;entryDx=0;entryDy=0;" parent="1" source="qIkF5-EqcUAHpWfbAgIs-44" target="qIkF5-EqcUAHpWfbAgIs-5" edge="1">
          <mxGeometry relative="1" as="geometry" />
        </mxCell>
        <mxCell id="qIkF5-EqcUAHpWfbAgIs-49" value="file" style="edgeLabel;html=1;align=center;verticalAlign=middle;resizable=0;points=[];" parent="qIkF5-EqcUAHpWfbAgIs-48" vertex="1" connectable="0">
          <mxGeometry x="0.3382" relative="1" as="geometry">
            <mxPoint x="-17" y="-9" as="offset" />
          </mxGeometry>
        </mxCell>
        <mxCell id="qIkF5-EqcUAHpWfbAgIs-44" value="&lt;div style=&quot;text-align: left&quot;&gt;event_file_link&lt;br&gt;&lt;/div&gt;" style="rounded=0;whiteSpace=wrap;html=1;" parent="1" vertex="1">
          <mxGeometry x="374" y="490" width="100" height="30" as="geometry" />
        </mxCell>
        <mxCell id="qIkF5-EqcUAHpWfbAgIs-55" style="edgeStyle=orthogonalEdgeStyle;rounded=0;orthogonalLoop=1;jettySize=auto;html=1;entryX=0;entryY=0.5;entryDx=0;entryDy=0;" parent="1" source="qIkF5-EqcUAHpWfbAgIs-53" target="B4HZqI1mZsQpKSkkHXQl-18" edge="1">
          <mxGeometry relative="1" as="geometry" />
        </mxCell>
        <mxCell id="qIkF5-EqcUAHpWfbAgIs-56" value="rp" style="edgeLabel;html=1;align=center;verticalAlign=middle;resizable=0;points=[];" parent="qIkF5-EqcUAHpWfbAgIs-55" vertex="1" connectable="0">
          <mxGeometry x="-0.266" relative="1" as="geometry">
            <mxPoint y="-11" as="offset" />
          </mxGeometry>
        </mxCell>
        <mxCell id="qIkF5-EqcUAHpWfbAgIs-58" style="edgeStyle=orthogonalEdgeStyle;rounded=0;orthogonalLoop=1;jettySize=auto;html=1;entryX=0.25;entryY=1;entryDx=0;entryDy=0;" parent="1" source="qIkF5-EqcUAHpWfbAgIs-53" target="B4HZqI1mZsQpKSkkHXQl-18" edge="1">
          <mxGeometry relative="1" as="geometry">
            <Array as="points">
              <mxPoint x="-5" y="274" />
              <mxPoint x="131" y="274" />
            </Array>
          </mxGeometry>
        </mxCell>
        <mxCell id="qIkF5-EqcUAHpWfbAgIs-59" value="hlist" style="edgeLabel;html=1;align=center;verticalAlign=middle;resizable=0;points=[];" parent="qIkF5-EqcUAHpWfbAgIs-58" vertex="1" connectable="0">
          <mxGeometry x="-0.8367" y="-1" relative="1" as="geometry">
            <mxPoint x="16" y="12" as="offset" />
          </mxGeometry>
        </mxCell>
        <mxCell id="qIkF5-EqcUAHpWfbAgIs-60" value="free_instances" style="edgeLabel;html=1;align=center;verticalAlign=middle;resizable=0;points=[];" parent="qIkF5-EqcUAHpWfbAgIs-58" vertex="1" connectable="0">
          <mxGeometry x="0.8101" y="2" relative="1" as="geometry">
            <mxPoint x="-38" y="10" as="offset" />
          </mxGeometry>
        </mxCell>
        <mxCell id="qIkF5-EqcUAHpWfbAgIs-61" value="n:1" style="edgeLabel;html=1;align=center;verticalAlign=middle;resizable=0;points=[];" parent="qIkF5-EqcUAHpWfbAgIs-58" vertex="1" connectable="0">
          <mxGeometry x="-0.1725" relative="1" as="geometry">
            <mxPoint y="-11" as="offset" />
          </mxGeometry>
        </mxCell>
        <mxCell id="qIkF5-EqcUAHpWfbAgIs-63" style="edgeStyle=orthogonalEdgeStyle;rounded=0;orthogonalLoop=1;jettySize=auto;html=1;entryX=0.5;entryY=0;entryDx=0;entryDy=0;" parent="1" source="qIkF5-EqcUAHpWfbAgIs-53" target="qIkF5-EqcUAHpWfbAgIs-62" edge="1">
          <mxGeometry relative="1" as="geometry">
            <Array as="points">
              <mxPoint x="-25" y="280" />
              <mxPoint x="-25" y="280" />
            </Array>
          </mxGeometry>
        </mxCell>
        <mxCell id="qIkF5-EqcUAHpWfbAgIs-64" value="hlist" style="edgeLabel;html=1;align=center;verticalAlign=middle;resizable=0;points=[];" parent="qIkF5-EqcUAHpWfbAgIs-63" vertex="1" connectable="0">
          <mxGeometry x="-0.6939" y="-1" relative="1" as="geometry">
            <mxPoint as="offset" />
          </mxGeometry>
        </mxCell>
        <mxCell id="qIkF5-EqcUAHpWfbAgIs-53" value="kretprobe_instance " style="swimlane;fontStyle=1;align=center;verticalAlign=top;childLayout=stackLayout;horizontal=1;startSize=26;horizontalStack=0;resizeParent=1;resizeParentMax=0;resizeLast=0;collapsible=1;marginBottom=0;" parent="1" vertex="1">
          <mxGeometry x="-70" y="220" width="130" height="34" as="geometry" />
        </mxCell>
        <mxCell id="qIkF5-EqcUAHpWfbAgIs-54" value="" style="line;strokeWidth=1;fillColor=none;align=left;verticalAlign=middle;spacingTop=-1;spacingLeft=3;spacingRight=3;rotatable=0;labelPosition=right;points=[];portConstraint=eastwest;" parent="qIkF5-EqcUAHpWfbAgIs-53" vertex="1">
          <mxGeometry y="26" width="130" height="8" as="geometry" />
        </mxCell>
        <mxCell id="qIkF5-EqcUAHpWfbAgIs-62" value="kretprobe_inst_table" style="text;whiteSpace=wrap;html=1;" parent="1" vertex="1">
          <mxGeometry x="-90" y="377" width="130" height="30" as="geometry" />
        </mxCell>
        <mxCell id="7mLeyKJhiGJhWgUJp1ox-7" style="edgeStyle=orthogonalEdgeStyle;rounded=0;orthogonalLoop=1;jettySize=auto;html=1;entryX=0.5;entryY=1;entryDx=0;entryDy=0;exitX=1;exitY=0;exitDx=0;exitDy=0;" parent="1" source="7mLeyKJhiGJhWgUJp1ox-9" target="7mLeyKJhiGJhWgUJp1ox-27" edge="1">
          <mxGeometry relative="1" as="geometry">
            <Array as="points">
              <mxPoint x="715" y="910" />
            </Array>
          </mxGeometry>
        </mxCell>
        <mxCell id="7mLeyKJhiGJhWgUJp1ox-8" value="tp" style="edgeLabel;html=1;align=center;verticalAlign=middle;resizable=0;points=[];" parent="7mLeyKJhiGJhWgUJp1ox-7" vertex="1" connectable="0">
          <mxGeometry x="-0.2011" y="-1" relative="1" as="geometry">
            <mxPoint as="offset" />
          </mxGeometry>
        </mxCell>
        <mxCell id="7mLeyKJhiGJhWgUJp1ox-9" value="trace_event_call" style="swimlane;fontStyle=1;align=center;verticalAlign=top;childLayout=stackLayout;horizontal=1;startSize=20;horizontalStack=0;resizeParent=1;resizeParentMax=0;resizeLast=0;collapsible=1;marginBottom=0;" parent="1" vertex="1">
          <mxGeometry x="451" y="910" width="200" height="28" as="geometry" />
        </mxCell>
        <mxCell id="7mLeyKJhiGJhWgUJp1ox-10" value="" style="line;strokeWidth=1;fillColor=none;align=left;verticalAlign=middle;spacingTop=-1;spacingLeft=3;spacingRight=3;rotatable=0;labelPosition=right;points=[];portConstraint=eastwest;" parent="7mLeyKJhiGJhWgUJp1ox-9" vertex="1">
          <mxGeometry y="20" width="200" height="8" as="geometry" />
        </mxCell>
        <mxCell id="7mLeyKJhiGJhWgUJp1ox-21" style="edgeStyle=orthogonalEdgeStyle;rounded=0;orthogonalLoop=1;jettySize=auto;html=1;exitX=1;exitY=0.5;exitDx=0;exitDy=0;entryX=0;entryY=0.5;entryDx=0;entryDy=0;" parent="1" source="7mLeyKJhiGJhWgUJp1ox-23" target="7mLeyKJhiGJhWgUJp1ox-98" edge="1">
          <mxGeometry relative="1" as="geometry">
            <mxPoint x="810" y="773" as="targetPoint" />
          </mxGeometry>
        </mxCell>
        <mxCell id="7mLeyKJhiGJhWgUJp1ox-22" value="list" style="edgeLabel;html=1;align=center;verticalAlign=middle;resizable=0;points=[];" parent="7mLeyKJhiGJhWgUJp1ox-21" vertex="1" connectable="0">
          <mxGeometry x="0.3384" y="-2" relative="1" as="geometry">
            <mxPoint as="offset" />
          </mxGeometry>
        </mxCell>
        <mxCell id="7mLeyKJhiGJhWgUJp1ox-23" value="trace_event" style="swimlane;fontStyle=1;align=center;verticalAlign=top;childLayout=stackLayout;horizontal=1;startSize=26;horizontalStack=0;resizeParent=1;resizeParentMax=0;resizeLast=0;collapsible=1;marginBottom=0;" parent="1" vertex="1">
          <mxGeometry x="505.5" y="754" width="91" height="34" as="geometry" />
        </mxCell>
        <mxCell id="7mLeyKJhiGJhWgUJp1ox-24" value="" style="line;strokeWidth=1;fillColor=none;align=left;verticalAlign=middle;spacingTop=-1;spacingLeft=3;spacingRight=3;rotatable=0;labelPosition=right;points=[];portConstraint=eastwest;" parent="7mLeyKJhiGJhWgUJp1ox-23" vertex="1">
          <mxGeometry y="26" width="91" height="8" as="geometry" />
        </mxCell>
        <mxCell id="7mLeyKJhiGJhWgUJp1ox-25" value="Extends" style="endArrow=block;endSize=16;endFill=0;html=1;entryX=0.5;entryY=1;entryDx=0;entryDy=0;" parent="1" source="7mLeyKJhiGJhWgUJp1ox-9" target="7mLeyKJhiGJhWgUJp1ox-23" edge="1">
          <mxGeometry width="160" relative="1" as="geometry">
            <mxPoint x="780" y="990" as="sourcePoint" />
            <mxPoint x="529" y="848" as="targetPoint" />
          </mxGeometry>
        </mxCell>
        <mxCell id="7mLeyKJhiGJhWgUJp1ox-26" value="event" style="edgeLabel;html=1;align=center;verticalAlign=middle;resizable=0;points=[];" parent="7mLeyKJhiGJhWgUJp1ox-25" vertex="1" connectable="0">
          <mxGeometry x="0.2988" y="-2" relative="1" as="geometry">
            <mxPoint as="offset" />
          </mxGeometry>
        </mxCell>
        <mxCell id="7mLeyKJhiGJhWgUJp1ox-135" style="edgeStyle=orthogonalEdgeStyle;rounded=0;orthogonalLoop=1;jettySize=auto;html=1;entryX=0;entryY=0.5;entryDx=0;entryDy=0;" parent="1" source="7mLeyKJhiGJhWgUJp1ox-27" target="7mLeyKJhiGJhWgUJp1ox-126" edge="1">
          <mxGeometry relative="1" as="geometry">
            <Array as="points">
              <mxPoint x="653" y="790" />
            </Array>
          </mxGeometry>
        </mxCell>
        <mxCell id="7mLeyKJhiGJhWgUJp1ox-136" value="funcs" style="edgeLabel;html=1;align=center;verticalAlign=middle;resizable=0;points=[];" parent="7mLeyKJhiGJhWgUJp1ox-135" vertex="1" connectable="0">
          <mxGeometry x="-0.5918" relative="1" as="geometry">
            <mxPoint x="-12" y="-7" as="offset" />
          </mxGeometry>
        </mxCell>
        <mxCell id="7mLeyKJhiGJhWgUJp1ox-27" value="tracepoint" style="swimlane;fontStyle=1;align=center;verticalAlign=top;childLayout=stackLayout;horizontal=1;startSize=26;horizontalStack=0;resizeParent=1;resizeParentMax=0;resizeLast=0;collapsible=1;marginBottom=0;" parent="1" vertex="1">
          <mxGeometry x="635" y="816" width="160" height="34" as="geometry" />
        </mxCell>
        <mxCell id="7mLeyKJhiGJhWgUJp1ox-28" value="" style="line;strokeWidth=1;fillColor=none;align=left;verticalAlign=middle;spacingTop=-1;spacingLeft=3;spacingRight=3;rotatable=0;labelPosition=right;points=[];portConstraint=eastwest;" parent="7mLeyKJhiGJhWgUJp1ox-27" vertex="1">
          <mxGeometry y="26" width="160" height="8" as="geometry" />
        </mxCell>
        <mxCell id="7mLeyKJhiGJhWgUJp1ox-51" style="edgeStyle=orthogonalEdgeStyle;rounded=0;orthogonalLoop=1;jettySize=auto;html=1;entryX=0;entryY=0.5;entryDx=0;entryDy=0;" parent="1" source="7mLeyKJhiGJhWgUJp1ox-52" target="7mLeyKJhiGJhWgUJp1ox-65" edge="1">
          <mxGeometry relative="1" as="geometry" />
        </mxCell>
        <mxCell id="7mLeyKJhiGJhWgUJp1ox-52" value="" style="rounded=0;whiteSpace=wrap;html=1;" parent="1" vertex="1">
          <mxGeometry x="357" y="666" width="100" height="30" as="geometry" />
        </mxCell>
        <mxCell id="7mLeyKJhiGJhWgUJp1ox-53" style="edgeStyle=orthogonalEdgeStyle;rounded=0;orthogonalLoop=1;jettySize=auto;html=1;" parent="1" source="7mLeyKJhiGJhWgUJp1ox-54" target="7mLeyKJhiGJhWgUJp1ox-60" edge="1">
          <mxGeometry relative="1" as="geometry" />
        </mxCell>
        <mxCell id="7mLeyKJhiGJhWgUJp1ox-54" value="" style="rounded=0;whiteSpace=wrap;html=1;" parent="1" vertex="1">
          <mxGeometry x="357" y="696" width="100" height="30" as="geometry" />
        </mxCell>
        <mxCell id="7mLeyKJhiGJhWgUJp1ox-55" value="" style="rounded=0;whiteSpace=wrap;html=1;" parent="1" vertex="1">
          <mxGeometry x="357" y="726" width="100" height="30" as="geometry" />
        </mxCell>
        <mxCell id="7mLeyKJhiGJhWgUJp1ox-56" style="edgeStyle=orthogonalEdgeStyle;rounded=0;orthogonalLoop=1;jettySize=auto;html=1;entryX=0;entryY=0.5;entryDx=0;entryDy=0;" parent="1" source="7mLeyKJhiGJhWgUJp1ox-57" target="7mLeyKJhiGJhWgUJp1ox-23" edge="1">
          <mxGeometry relative="1" as="geometry">
            <mxPoint x="519" y="771" as="targetPoint" />
          </mxGeometry>
        </mxCell>
        <mxCell id="7mLeyKJhiGJhWgUJp1ox-57" value="" style="rounded=0;whiteSpace=wrap;html=1;" parent="1" vertex="1">
          <mxGeometry x="357" y="756" width="100" height="30" as="geometry" />
        </mxCell>
        <mxCell id="7mLeyKJhiGJhWgUJp1ox-58" value="......" style="rounded=0;whiteSpace=wrap;html=1;" parent="1" vertex="1">
          <mxGeometry x="357" y="786" width="100" height="30" as="geometry" />
        </mxCell>
        <mxCell id="7mLeyKJhiGJhWgUJp1ox-59" style="edgeStyle=orthogonalEdgeStyle;rounded=0;orthogonalLoop=1;jettySize=auto;html=1;" parent="1" source="7mLeyKJhiGJhWgUJp1ox-60" target="7mLeyKJhiGJhWgUJp1ox-62" edge="1">
          <mxGeometry relative="1" as="geometry" />
        </mxCell>
        <mxCell id="7mLeyKJhiGJhWgUJp1ox-60" value="trace_event" style="swimlane;fontStyle=1;align=center;verticalAlign=top;childLayout=stackLayout;horizontal=1;startSize=26;horizontalStack=0;resizeParent=1;resizeParentMax=0;resizeLast=0;collapsible=1;marginBottom=0;" parent="1" vertex="1">
          <mxGeometry x="519" y="694" width="94" height="34" as="geometry" />
        </mxCell>
        <mxCell id="7mLeyKJhiGJhWgUJp1ox-61" value="" style="line;strokeWidth=1;fillColor=none;align=left;verticalAlign=middle;spacingTop=-1;spacingLeft=3;spacingRight=3;rotatable=0;labelPosition=right;points=[];portConstraint=eastwest;" parent="7mLeyKJhiGJhWgUJp1ox-60" vertex="1">
          <mxGeometry y="26" width="94" height="8" as="geometry" />
        </mxCell>
        <mxCell id="7mLeyKJhiGJhWgUJp1ox-62" value="trace_event" style="swimlane;fontStyle=1;align=center;verticalAlign=top;childLayout=stackLayout;horizontal=1;startSize=26;horizontalStack=0;resizeParent=1;resizeParentMax=0;resizeLast=0;collapsible=1;marginBottom=0;" parent="1" vertex="1">
          <mxGeometry x="641" y="694" width="94" height="34" as="geometry" />
        </mxCell>
        <mxCell id="7mLeyKJhiGJhWgUJp1ox-63" value="" style="line;strokeWidth=1;fillColor=none;align=left;verticalAlign=middle;spacingTop=-1;spacingLeft=3;spacingRight=3;rotatable=0;labelPosition=right;points=[];portConstraint=eastwest;" parent="7mLeyKJhiGJhWgUJp1ox-62" vertex="1">
          <mxGeometry y="26" width="94" height="8" as="geometry" />
        </mxCell>
        <mxCell id="7mLeyKJhiGJhWgUJp1ox-64" style="edgeStyle=orthogonalEdgeStyle;rounded=0;orthogonalLoop=1;jettySize=auto;html=1;exitX=1;exitY=0.5;exitDx=0;exitDy=0;entryX=0;entryY=0.5;entryDx=0;entryDy=0;" parent="1" source="7mLeyKJhiGJhWgUJp1ox-65" target="7mLeyKJhiGJhWgUJp1ox-69" edge="1">
          <mxGeometry relative="1" as="geometry" />
        </mxCell>
        <mxCell id="7mLeyKJhiGJhWgUJp1ox-65" value="trace_event" style="swimlane;fontStyle=1;align=center;verticalAlign=top;childLayout=stackLayout;horizontal=1;startSize=26;horizontalStack=0;resizeParent=1;resizeParentMax=0;resizeLast=0;collapsible=1;marginBottom=0;" parent="1" vertex="1">
          <mxGeometry x="519" y="654" width="94" height="34" as="geometry" />
        </mxCell>
        <mxCell id="7mLeyKJhiGJhWgUJp1ox-66" value="" style="line;strokeWidth=1;fillColor=none;align=left;verticalAlign=middle;spacingTop=-1;spacingLeft=3;spacingRight=3;rotatable=0;labelPosition=right;points=[];portConstraint=eastwest;" parent="7mLeyKJhiGJhWgUJp1ox-65" vertex="1">
          <mxGeometry y="26" width="94" height="8" as="geometry" />
        </mxCell>
        <mxCell id="7mLeyKJhiGJhWgUJp1ox-67" style="edgeStyle=orthogonalEdgeStyle;rounded=0;orthogonalLoop=1;jettySize=auto;html=1;entryX=0;entryY=0.5;entryDx=0;entryDy=0;exitX=0.5;exitY=0;exitDx=0;exitDy=0;" parent="1" source="7mLeyKJhiGJhWgUJp1ox-23" edge="1">
          <mxGeometry relative="1" as="geometry">
            <mxPoint x="610" y="754" as="sourcePoint" />
            <mxPoint x="810" y="735" as="targetPoint" />
            <Array as="points">
              <mxPoint x="565" y="735" />
            </Array>
          </mxGeometry>
        </mxCell>
        <mxCell id="7mLeyKJhiGJhWgUJp1ox-68" value="funcs" style="edgeLabel;html=1;align=center;verticalAlign=middle;resizable=0;points=[];" parent="7mLeyKJhiGJhWgUJp1ox-67" vertex="1" connectable="0">
          <mxGeometry x="0.3771" y="-2" relative="1" as="geometry">
            <mxPoint x="1" as="offset" />
          </mxGeometry>
        </mxCell>
        <mxCell id="7mLeyKJhiGJhWgUJp1ox-69" value="trace_event" style="swimlane;fontStyle=1;align=center;verticalAlign=top;childLayout=stackLayout;horizontal=1;startSize=26;horizontalStack=0;resizeParent=1;resizeParentMax=0;resizeLast=0;collapsible=1;marginBottom=0;" parent="1" vertex="1">
          <mxGeometry x="641" y="654" width="94" height="34" as="geometry" />
        </mxCell>
        <mxCell id="7mLeyKJhiGJhWgUJp1ox-70" value="" style="line;strokeWidth=1;fillColor=none;align=left;verticalAlign=middle;spacingTop=-1;spacingLeft=3;spacingRight=3;rotatable=0;labelPosition=right;points=[];portConstraint=eastwest;" parent="7mLeyKJhiGJhWgUJp1ox-69" vertex="1">
          <mxGeometry y="26" width="94" height="8" as="geometry" />
        </mxCell>
        <mxCell id="7mLeyKJhiGJhWgUJp1ox-71" value="event_hash" style="text;html=1;strokeColor=none;fillColor=none;align=center;verticalAlign=middle;whiteSpace=wrap;rounded=0;" parent="1" vertex="1">
          <mxGeometry x="367" y="640" width="80" height="20" as="geometry" />
        </mxCell>
        <mxCell id="7mLeyKJhiGJhWgUJp1ox-72" value="trace_event_class" style="swimlane;fontStyle=1;align=center;verticalAlign=top;childLayout=stackLayout;horizontal=1;startSize=26;horizontalStack=0;resizeParent=1;resizeParentMax=0;resizeLast=0;collapsible=1;marginBottom=0;" parent="1" vertex="1">
          <mxGeometry x="810" y="816" width="160" height="34" as="geometry" />
        </mxCell>
        <mxCell id="7mLeyKJhiGJhWgUJp1ox-73" value="" style="line;strokeWidth=1;fillColor=none;align=left;verticalAlign=middle;spacingTop=-1;spacingLeft=3;spacingRight=3;rotatable=0;labelPosition=right;points=[];portConstraint=eastwest;" parent="7mLeyKJhiGJhWgUJp1ox-72" vertex="1">
          <mxGeometry y="26" width="160" height="8" as="geometry" />
        </mxCell>
        <mxCell id="7mLeyKJhiGJhWgUJp1ox-74" style="edgeStyle=orthogonalEdgeStyle;rounded=0;orthogonalLoop=1;jettySize=auto;html=1;entryX=0.5;entryY=1;entryDx=0;entryDy=0;exitX=1;exitY=0.5;exitDx=0;exitDy=0;" parent="1" source="7mLeyKJhiGJhWgUJp1ox-9" target="7mLeyKJhiGJhWgUJp1ox-72" edge="1">
          <mxGeometry relative="1" as="geometry" />
        </mxCell>
        <mxCell id="7mLeyKJhiGJhWgUJp1ox-75" value="class" style="edgeLabel;html=1;align=center;verticalAlign=middle;resizable=0;points=[];" parent="7mLeyKJhiGJhWgUJp1ox-74" vertex="1" connectable="0">
          <mxGeometry x="0.0473" relative="1" as="geometry">
            <mxPoint as="offset" />
          </mxGeometry>
        </mxCell>
        <mxCell id="7mLeyKJhiGJhWgUJp1ox-76" value="trace_event_functions" style="swimlane;fontStyle=1;align=center;verticalAlign=top;childLayout=stackLayout;horizontal=1;startSize=26;horizontalStack=0;resizeParent=1;resizeParentMax=0;resizeLast=0;collapsible=1;marginBottom=0;" parent="1" vertex="1">
          <mxGeometry x="810" y="720" width="160" height="34" as="geometry" />
        </mxCell>
        <mxCell id="7mLeyKJhiGJhWgUJp1ox-77" value="" style="line;strokeWidth=1;fillColor=none;align=left;verticalAlign=middle;spacingTop=-1;spacingLeft=3;spacingRight=3;rotatable=0;labelPosition=right;points=[];portConstraint=eastwest;" parent="7mLeyKJhiGJhWgUJp1ox-76" vertex="1">
          <mxGeometry y="26" width="160" height="8" as="geometry" />
        </mxCell>
        <mxCell id="7mLeyKJhiGJhWgUJp1ox-78" style="edgeStyle=orthogonalEdgeStyle;rounded=0;orthogonalLoop=1;jettySize=auto;html=1;exitX=1;exitY=1;exitDx=0;exitDy=0;entryX=0;entryY=0.5;entryDx=0;entryDy=0;" parent="1" source="7mLeyKJhiGJhWgUJp1ox-9" target="7mLeyKJhiGJhWgUJp1ox-105" edge="1">
          <mxGeometry relative="1" as="geometry">
            <mxPoint x="620" y="991.66" as="sourcePoint" />
            <mxPoint x="940" y="945" as="targetPoint" />
            <Array as="points">
              <mxPoint x="651" y="944" />
              <mxPoint x="940" y="944" />
            </Array>
          </mxGeometry>
        </mxCell>
        <mxCell id="7mLeyKJhiGJhWgUJp1ox-79" value="list" style="edgeLabel;html=1;align=center;verticalAlign=middle;resizable=0;points=[];" parent="7mLeyKJhiGJhWgUJp1ox-78" vertex="1" connectable="0">
          <mxGeometry x="0.3384" y="-2" relative="1" as="geometry">
            <mxPoint x="-15" y="-2" as="offset" />
          </mxGeometry>
        </mxCell>
        <mxCell id="7mLeyKJhiGJhWgUJp1ox-80" style="edgeStyle=orthogonalEdgeStyle;rounded=0;orthogonalLoop=1;jettySize=auto;html=1;entryX=0;entryY=0.5;entryDx=0;entryDy=0;" parent="1" source="7mLeyKJhiGJhWgUJp1ox-86" target="7mLeyKJhiGJhWgUJp1ox-87" edge="1">
          <mxGeometry relative="1" as="geometry" />
        </mxCell>
        <mxCell id="7mLeyKJhiGJhWgUJp1ox-81" value="list" style="edgeLabel;html=1;align=center;verticalAlign=middle;resizable=0;points=[];" parent="7mLeyKJhiGJhWgUJp1ox-80" vertex="1" connectable="0">
          <mxGeometry x="-0.2387" y="2" relative="1" as="geometry">
            <mxPoint as="offset" />
          </mxGeometry>
        </mxCell>
        <mxCell id="7mLeyKJhiGJhWgUJp1ox-82" style="edgeStyle=orthogonalEdgeStyle;rounded=0;orthogonalLoop=1;jettySize=auto;html=1;exitX=0.327;exitY=-0.074;exitDx=0;exitDy=0;exitPerimeter=0;" parent="1" source="7mLeyKJhiGJhWgUJp1ox-86" edge="1">
          <mxGeometry relative="1" as="geometry">
            <mxPoint x="640" y="940" as="targetPoint" />
          </mxGeometry>
        </mxCell>
        <mxCell id="7mLeyKJhiGJhWgUJp1ox-83" value="event_call&amp;nbsp;" style="edgeLabel;html=1;align=center;verticalAlign=middle;resizable=0;points=[];" parent="7mLeyKJhiGJhWgUJp1ox-82" vertex="1" connectable="0">
          <mxGeometry x="0.3429" y="3" relative="1" as="geometry">
            <mxPoint x="4" y="18" as="offset" />
          </mxGeometry>
        </mxCell>
        <mxCell id="7mLeyKJhiGJhWgUJp1ox-84" style="edgeStyle=orthogonalEdgeStyle;rounded=0;orthogonalLoop=1;jettySize=auto;html=1;entryX=0.4;entryY=0;entryDx=0;entryDy=0;entryPerimeter=0;exitX=1;exitY=0.75;exitDx=0;exitDy=0;" parent="1" source="7mLeyKJhiGJhWgUJp1ox-86" target="7mLeyKJhiGJhWgUJp1ox-108" edge="1">
          <mxGeometry relative="1" as="geometry" />
        </mxCell>
        <mxCell id="7mLeyKJhiGJhWgUJp1ox-85" value="event_dir" style="edgeLabel;html=1;align=center;verticalAlign=middle;resizable=0;points=[];" parent="7mLeyKJhiGJhWgUJp1ox-84" vertex="1" connectable="0">
          <mxGeometry x="-0.0768" y="-2" relative="1" as="geometry">
            <mxPoint y="7" as="offset" />
          </mxGeometry>
        </mxCell>
        <mxCell id="7mLeyKJhiGJhWgUJp1ox-86" value="&lt;div style=&quot;text-align: left&quot;&gt;trace_array&lt;/div&gt;" style="rounded=0;whiteSpace=wrap;html=1;" parent="1" vertex="1">
          <mxGeometry x="590.5" y="1010" width="149.5" height="29" as="geometry" />
        </mxCell>
        <mxCell id="7mLeyKJhiGJhWgUJp1ox-87" value="&lt;span style=&quot;color: rgb(0, 0, 0); font-family: helvetica; font-size: 12px; font-style: normal; font-weight: 400; letter-spacing: normal; text-align: left; text-indent: 0px; text-transform: none; word-spacing: 0px; background-color: rgb(248, 249, 250); display: inline; float: none;&quot;&gt;ftrace_trace_arrays&lt;/span&gt;" style="text;whiteSpace=wrap;html=1;" parent="1" vertex="1">
          <mxGeometry x="930" y="1009" width="130" height="30" as="geometry" />
        </mxCell>
        <mxCell id="7mLeyKJhiGJhWgUJp1ox-88" style="edgeStyle=orthogonalEdgeStyle;rounded=0;orthogonalLoop=1;jettySize=auto;html=1;" parent="1" source="7mLeyKJhiGJhWgUJp1ox-97" edge="1">
          <mxGeometry relative="1" as="geometry">
            <mxPoint x="610" y="1040" as="targetPoint" />
          </mxGeometry>
        </mxCell>
        <mxCell id="7mLeyKJhiGJhWgUJp1ox-89" value="list" style="edgeLabel;html=1;align=center;verticalAlign=middle;resizable=0;points=[];" parent="7mLeyKJhiGJhWgUJp1ox-88" vertex="1" connectable="0">
          <mxGeometry x="-0.3602" y="1" relative="1" as="geometry">
            <mxPoint y="9" as="offset" />
          </mxGeometry>
        </mxCell>
        <mxCell id="7mLeyKJhiGJhWgUJp1ox-90" value="events" style="edgeLabel;html=1;align=center;verticalAlign=middle;resizable=0;points=[];" parent="7mLeyKJhiGJhWgUJp1ox-88" vertex="1" connectable="0">
          <mxGeometry x="0.23" y="1" relative="1" as="geometry">
            <mxPoint y="-7" as="offset" />
          </mxGeometry>
        </mxCell>
        <mxCell id="7mLeyKJhiGJhWgUJp1ox-91" style="edgeStyle=orthogonalEdgeStyle;rounded=0;orthogonalLoop=1;jettySize=auto;html=1;exitX=0.75;exitY=0;exitDx=0;exitDy=0;" parent="1" source="7mLeyKJhiGJhWgUJp1ox-97" edge="1">
          <mxGeometry relative="1" as="geometry">
            <mxPoint x="634" y="1040" as="targetPoint" />
            <Array as="points">
              <mxPoint x="616" y="1100" />
              <mxPoint x="634" y="1100" />
            </Array>
          </mxGeometry>
        </mxCell>
        <mxCell id="7mLeyKJhiGJhWgUJp1ox-92" value="tr" style="edgeLabel;html=1;align=center;verticalAlign=middle;resizable=0;points=[];" parent="7mLeyKJhiGJhWgUJp1ox-91" vertex="1" connectable="0">
          <mxGeometry x="-0.6906" y="-1" relative="1" as="geometry">
            <mxPoint x="13" y="-17" as="offset" />
          </mxGeometry>
        </mxCell>
        <mxCell id="7mLeyKJhiGJhWgUJp1ox-93" style="edgeStyle=orthogonalEdgeStyle;rounded=0;orthogonalLoop=1;jettySize=auto;html=1;" parent="1" source="7mLeyKJhiGJhWgUJp1ox-97" target="7mLeyKJhiGJhWgUJp1ox-104" edge="1">
          <mxGeometry relative="1" as="geometry" />
        </mxCell>
        <mxCell id="7mLeyKJhiGJhWgUJp1ox-94" value="system" style="edgeLabel;html=1;align=center;verticalAlign=middle;resizable=0;points=[];" parent="7mLeyKJhiGJhWgUJp1ox-93" vertex="1" connectable="0">
          <mxGeometry x="0.1888" y="-1" relative="1" as="geometry">
            <mxPoint x="-7" y="-11" as="offset" />
          </mxGeometry>
        </mxCell>
        <mxCell id="7mLeyKJhiGJhWgUJp1ox-95" style="edgeStyle=orthogonalEdgeStyle;rounded=0;orthogonalLoop=1;jettySize=auto;html=1;entryX=0.5;entryY=1;entryDx=0;entryDy=0;exitX=0.107;exitY=-0.072;exitDx=0;exitDy=0;exitPerimeter=0;" parent="1" source="7mLeyKJhiGJhWgUJp1ox-97" target="7mLeyKJhiGJhWgUJp1ox-9" edge="1">
          <mxGeometry relative="1" as="geometry" />
        </mxCell>
        <mxCell id="7mLeyKJhiGJhWgUJp1ox-96" value="event_call" style="edgeLabel;html=1;align=center;verticalAlign=middle;resizable=0;points=[];" parent="7mLeyKJhiGJhWgUJp1ox-95" vertex="1" connectable="0">
          <mxGeometry x="0.6602" y="-2" relative="1" as="geometry">
            <mxPoint x="-12" y="111" as="offset" />
          </mxGeometry>
        </mxCell>
        <mxCell id="7mLeyKJhiGJhWgUJp1ox-97" value="&lt;div style=&quot;text-align: left&quot;&gt;&lt;span&gt;trace_event_file&amp;nbsp;&lt;/span&gt;&lt;/div&gt;" style="rounded=0;whiteSpace=wrap;html=1;" parent="1" vertex="1">
          <mxGeometry x="541" y="1120" width="100" height="30" as="geometry" />
        </mxCell>
        <mxCell id="7mLeyKJhiGJhWgUJp1ox-98" value="&lt;span style=&quot;color: rgb(0, 0, 0); font-family: helvetica; font-size: 12px; font-style: normal; font-weight: 400; letter-spacing: normal; text-align: center; text-indent: 0px; text-transform: none; word-spacing: 0px; background-color: rgb(248, 249, 250); display: inline; float: none;&quot;&gt;ftrace_event_list&lt;/span&gt;" style="text;whiteSpace=wrap;html=1;" parent="1" vertex="1">
          <mxGeometry x="915" y="756" width="110" height="30" as="geometry" />
        </mxCell>
        <mxCell id="7mLeyKJhiGJhWgUJp1ox-99" style="edgeStyle=orthogonalEdgeStyle;rounded=0;orthogonalLoop=1;jettySize=auto;html=1;exitX=0.377;exitY=-0.044;exitDx=0;exitDy=0;exitPerimeter=0;entryX=0.895;entryY=1.023;entryDx=0;entryDy=0;entryPerimeter=0;" parent="1" source="7mLeyKJhiGJhWgUJp1ox-104" target="7mLeyKJhiGJhWgUJp1ox-86" edge="1">
          <mxGeometry relative="1" as="geometry">
            <mxPoint x="715" y="1040" as="targetPoint" />
          </mxGeometry>
        </mxCell>
        <mxCell id="7mLeyKJhiGJhWgUJp1ox-100" value="list" style="edgeLabel;html=1;align=center;verticalAlign=middle;resizable=0;points=[];" parent="7mLeyKJhiGJhWgUJp1ox-99" vertex="1" connectable="0">
          <mxGeometry x="-0.7015" y="-1" relative="1" as="geometry">
            <mxPoint as="offset" />
          </mxGeometry>
        </mxCell>
        <mxCell id="7mLeyKJhiGJhWgUJp1ox-101" value="systems" style="edgeLabel;html=1;align=center;verticalAlign=middle;resizable=0;points=[];" parent="7mLeyKJhiGJhWgUJp1ox-99" vertex="1" connectable="0">
          <mxGeometry x="0.5483" relative="1" as="geometry">
            <mxPoint as="offset" />
          </mxGeometry>
        </mxCell>
        <mxCell id="7mLeyKJhiGJhWgUJp1ox-102" style="edgeStyle=orthogonalEdgeStyle;rounded=0;orthogonalLoop=1;jettySize=auto;html=1;entryX=0;entryY=0.5;entryDx=0;entryDy=0;" parent="1" source="7mLeyKJhiGJhWgUJp1ox-104" target="7mLeyKJhiGJhWgUJp1ox-108" edge="1">
          <mxGeometry relative="1" as="geometry" />
        </mxCell>
        <mxCell id="7mLeyKJhiGJhWgUJp1ox-103" value="entry" style="edgeLabel;html=1;align=center;verticalAlign=middle;resizable=0;points=[];" parent="7mLeyKJhiGJhWgUJp1ox-102" vertex="1" connectable="0">
          <mxGeometry x="0.1636" relative="1" as="geometry">
            <mxPoint x="-6" y="-9" as="offset" />
          </mxGeometry>
        </mxCell>
        <mxCell id="7mLeyKJhiGJhWgUJp1ox-104" value="&lt;div style=&quot;text-align: left&quot;&gt;trace_subsystem_dir&lt;br&gt;&lt;/div&gt;" style="rounded=0;whiteSpace=wrap;html=1;" parent="1" vertex="1">
          <mxGeometry x="689" y="1120" width="126" height="30" as="geometry" />
        </mxCell>
        <mxCell id="7mLeyKJhiGJhWgUJp1ox-105" value="&lt;span style=&quot;color: rgb(0, 0, 0); font-family: helvetica; font-size: 12px; font-style: normal; font-weight: 400; letter-spacing: normal; text-align: center; text-indent: 0px; text-transform: none; word-spacing: 0px; background-color: rgb(248, 249, 250); display: inline; float: none;&quot;&gt;ftrace_events&lt;/span&gt;" style="text;whiteSpace=wrap;html=1;" parent="1" vertex="1">
          <mxGeometry x="920" y="930" width="100" height="30" as="geometry" />
        </mxCell>
        <mxCell id="7mLeyKJhiGJhWgUJp1ox-106" style="edgeStyle=orthogonalEdgeStyle;rounded=0;orthogonalLoop=1;jettySize=auto;html=1;exitX=0.124;exitY=-0.027;exitDx=0;exitDy=0;entryX=0.695;entryY=1.034;entryDx=0;entryDy=0;entryPerimeter=0;exitPerimeter=0;" parent="1" source="7mLeyKJhiGJhWgUJp1ox-104" target="7mLeyKJhiGJhWgUJp1ox-86" edge="1">
          <mxGeometry relative="1" as="geometry">
            <mxPoint x="645" y="1130" as="sourcePoint" />
            <mxPoint x="644" y="1050" as="targetPoint" />
          </mxGeometry>
        </mxCell>
        <mxCell id="7mLeyKJhiGJhWgUJp1ox-107" value="tr" style="edgeLabel;html=1;align=center;verticalAlign=middle;resizable=0;points=[];" parent="7mLeyKJhiGJhWgUJp1ox-106" vertex="1" connectable="0">
          <mxGeometry x="-0.6906" y="-1" relative="1" as="geometry">
            <mxPoint x="-1" y="-17" as="offset" />
          </mxGeometry>
        </mxCell>
        <mxCell id="7mLeyKJhiGJhWgUJp1ox-108" value="&lt;div style=&quot;text-align: left&quot;&gt;dentry&lt;br&gt;&lt;/div&gt;" style="rounded=0;whiteSpace=wrap;html=1;" parent="1" vertex="1">
          <mxGeometry x="870" y="1120" width="100" height="30" as="geometry" />
        </mxCell>
        <mxCell id="7mLeyKJhiGJhWgUJp1ox-112" style="edgeStyle=orthogonalEdgeStyle;rounded=0;orthogonalLoop=1;jettySize=auto;html=1;entryX=0;entryY=0.5;entryDx=0;entryDy=0;" parent="1" source="7mLeyKJhiGJhWgUJp1ox-114" target="7mLeyKJhiGJhWgUJp1ox-97" edge="1">
          <mxGeometry relative="1" as="geometry" />
        </mxCell>
        <mxCell id="7mLeyKJhiGJhWgUJp1ox-113" value="file" style="edgeLabel;html=1;align=center;verticalAlign=middle;resizable=0;points=[];" parent="7mLeyKJhiGJhWgUJp1ox-112" vertex="1" connectable="0">
          <mxGeometry x="0.3382" relative="1" as="geometry">
            <mxPoint x="-17" y="-9" as="offset" />
          </mxGeometry>
        </mxCell>
        <mxCell id="7mLeyKJhiGJhWgUJp1ox-114" value="&lt;div style=&quot;text-align: left&quot;&gt;event_file_link&lt;br&gt;&lt;/div&gt;" style="rounded=0;whiteSpace=wrap;html=1;" parent="1" vertex="1">
          <mxGeometry x="384" y="1120" width="100" height="30" as="geometry" />
        </mxCell>
        <mxCell id="7mLeyKJhiGJhWgUJp1ox-126" value="tracepoint_func" style="rounded=0;whiteSpace=wrap;html=1;" parent="1" vertex="1">
          <mxGeometry x="673" y="780" width="86" height="20" as="geometry" />
        </mxCell>
        <mxCell id="7mLeyKJhiGJhWgUJp1ox-131" value="tracepoint_func" style="rounded=0;whiteSpace=wrap;html=1;" parent="1" vertex="1">
          <mxGeometry x="759" y="780" width="86" height="20" as="geometry" />
        </mxCell>
        <mxCell id="7mLeyKJhiGJhWgUJp1ox-132" value="tracepoint_func" style="rounded=0;whiteSpace=wrap;html=1;" parent="1" vertex="1">
          <mxGeometry x="880" y="780" width="86" height="20" as="geometry" />
        </mxCell>
        <mxCell id="7mLeyKJhiGJhWgUJp1ox-133" value="..." style="rounded=0;whiteSpace=wrap;html=1;" parent="1" vertex="1">
          <mxGeometry x="845" y="780" width="35" height="20" as="geometry" />
        </mxCell>
        <mxCell id="7S3xfPPljMcKxenAqMX9-5" style="edgeStyle=orthogonalEdgeStyle;rounded=0;orthogonalLoop=1;jettySize=auto;html=1;entryX=0;entryY=0.5;entryDx=0;entryDy=0;" edge="1" parent="1" source="7S3xfPPljMcKxenAqMX9-1" target="7S3xfPPljMcKxenAqMX9-2">
          <mxGeometry relative="1" as="geometry" />
        </mxCell>
        <mxCell id="7S3xfPPljMcKxenAqMX9-6" value="next" style="edgeLabel;html=1;align=center;verticalAlign=middle;resizable=0;points=[];" vertex="1" connectable="0" parent="7S3xfPPljMcKxenAqMX9-5">
          <mxGeometry x="0.2996" y="1" relative="1" as="geometry">
            <mxPoint x="-11" y="-9" as="offset" />
          </mxGeometry>
        </mxCell>
        <mxCell id="7S3xfPPljMcKxenAqMX9-10" style="edgeStyle=orthogonalEdgeStyle;rounded=0;orthogonalLoop=1;jettySize=auto;html=1;entryX=0.5;entryY=0;entryDx=0;entryDy=0;" edge="1" parent="1" source="7S3xfPPljMcKxenAqMX9-1" target="7S3xfPPljMcKxenAqMX9-9">
          <mxGeometry relative="1" as="geometry" />
        </mxCell>
        <mxCell id="7S3xfPPljMcKxenAqMX9-1" value="ftrace_page" style="rounded=0;whiteSpace=wrap;html=1;" vertex="1" parent="1">
          <mxGeometry x="109" y="-500" width="120" height="40" as="geometry" />
        </mxCell>
        <mxCell id="7S3xfPPljMcKxenAqMX9-2" value="ftrace_page" style="rounded=0;whiteSpace=wrap;html=1;" vertex="1" parent="1">
          <mxGeometry x="294" y="-500" width="120" height="40" as="geometry" />
        </mxCell>
        <mxCell id="7S3xfPPljMcKxenAqMX9-3" value="ftrace_page" style="rounded=0;whiteSpace=wrap;html=1;" vertex="1" parent="1">
          <mxGeometry x="497" y="-500" width="120" height="40" as="geometry" />
        </mxCell>
        <mxCell id="7S3xfPPljMcKxenAqMX9-7" style="edgeStyle=orthogonalEdgeStyle;rounded=0;orthogonalLoop=1;jettySize=auto;html=1;" edge="1" parent="1">
          <mxGeometry relative="1" as="geometry">
            <mxPoint x="496" y="-479.9999999999999" as="targetPoint" />
            <mxPoint x="460" y="-479.9655172413793" as="sourcePoint" />
          </mxGeometry>
        </mxCell>
        <mxCell id="7S3xfPPljMcKxenAqMX9-4" value="..." style="text;html=1;strokeColor=none;fillColor=none;align=center;verticalAlign=middle;whiteSpace=wrap;rounded=0;" vertex="1" parent="1">
          <mxGeometry x="424" y="-495" width="60" height="30" as="geometry" />
        </mxCell>
        <mxCell id="7S3xfPPljMcKxenAqMX9-8" value="next" style="text;html=1;align=center;verticalAlign=middle;resizable=0;points=[];autosize=1;strokeColor=none;fillColor=none;" vertex="1" parent="1">
          <mxGeometry x="456" y="-500" width="40" height="20" as="geometry" />
        </mxCell>
        <mxCell id="7S3xfPPljMcKxenAqMX9-9" value="dyn_ftrace" style="rounded=0;whiteSpace=wrap;html=1;" vertex="1" parent="1">
          <mxGeometry x="108" y="-420" width="120" height="20" as="geometry" />
        </mxCell>
        <mxCell id="7S3xfPPljMcKxenAqMX9-11" value="records" style="text;html=1;align=center;verticalAlign=middle;resizable=0;points=[];autosize=1;strokeColor=none;fillColor=none;" vertex="1" parent="1">
          <mxGeometry x="168" y="-450" width="60" height="20" as="geometry" />
        </mxCell>
        <mxCell id="7S3xfPPljMcKxenAqMX9-12" value="dyn_ftrace" style="rounded=0;whiteSpace=wrap;html=1;" vertex="1" parent="1">
          <mxGeometry x="108" y="-400" width="120" height="20" as="geometry" />
        </mxCell>
        <mxCell id="7S3xfPPljMcKxenAqMX9-13" value="dyn_ftrace" style="rounded=0;whiteSpace=wrap;html=1;" vertex="1" parent="1">
          <mxGeometry x="108" y="-380" width="120" height="20" as="geometry" />
        </mxCell>
        <mxCell id="7S3xfPPljMcKxenAqMX9-14" value="..." style="rounded=0;whiteSpace=wrap;html=1;" vertex="1" parent="1">
          <mxGeometry x="108" y="-360" width="120" height="20" as="geometry" />
        </mxCell>
        <mxCell id="7S3xfPPljMcKxenAqMX9-15" value="dyn_ftrace" style="rounded=0;whiteSpace=wrap;html=1;" vertex="1" parent="1">
          <mxGeometry x="108" y="-340" width="120" height="20" as="geometry" />
        </mxCell>
        <mxCell id="7S3xfPPljMcKxenAqMX9-16" style="edgeStyle=orthogonalEdgeStyle;rounded=0;orthogonalLoop=1;jettySize=auto;html=1;entryX=0.5;entryY=0;entryDx=0;entryDy=0;" edge="1" parent="1" target="7S3xfPPljMcKxenAqMX9-17">
          <mxGeometry relative="1" as="geometry">
            <mxPoint x="350.9655172413793" y="-460" as="sourcePoint" />
          </mxGeometry>
        </mxCell>
        <mxCell id="7S3xfPPljMcKxenAqMX9-17" value="dyn_ftrace" style="rounded=0;whiteSpace=wrap;html=1;" vertex="1" parent="1">
          <mxGeometry x="291" y="-420" width="120" height="20" as="geometry" />
        </mxCell>
        <mxCell id="7S3xfPPljMcKxenAqMX9-18" value="records" style="text;html=1;align=center;verticalAlign=middle;resizable=0;points=[];autosize=1;strokeColor=none;fillColor=none;" vertex="1" parent="1">
          <mxGeometry x="357" y="-450" width="60" height="20" as="geometry" />
        </mxCell>
        <mxCell id="7S3xfPPljMcKxenAqMX9-19" value="dyn_ftrace" style="rounded=0;whiteSpace=wrap;html=1;" vertex="1" parent="1">
          <mxGeometry x="291" y="-400" width="120" height="20" as="geometry" />
        </mxCell>
        <mxCell id="7S3xfPPljMcKxenAqMX9-20" value="dyn_ftrace" style="rounded=0;whiteSpace=wrap;html=1;" vertex="1" parent="1">
          <mxGeometry x="291" y="-380" width="120" height="20" as="geometry" />
        </mxCell>
        <mxCell id="7S3xfPPljMcKxenAqMX9-21" value="..." style="rounded=0;whiteSpace=wrap;html=1;" vertex="1" parent="1">
          <mxGeometry x="291" y="-360" width="120" height="20" as="geometry" />
        </mxCell>
        <mxCell id="7S3xfPPljMcKxenAqMX9-22" value="dyn_ftrace" style="rounded=0;whiteSpace=wrap;html=1;" vertex="1" parent="1">
          <mxGeometry x="291" y="-340" width="120" height="20" as="geometry" />
        </mxCell>
        <mxCell id="7S3xfPPljMcKxenAqMX9-23" style="edgeStyle=orthogonalEdgeStyle;rounded=0;orthogonalLoop=1;jettySize=auto;html=1;entryX=0.5;entryY=0;entryDx=0;entryDy=0;" edge="1" parent="1" target="7S3xfPPljMcKxenAqMX9-24">
          <mxGeometry relative="1" as="geometry">
            <mxPoint x="556.9655172413793" y="-460" as="sourcePoint" />
          </mxGeometry>
        </mxCell>
        <mxCell id="7S3xfPPljMcKxenAqMX9-24" value="dyn_ftrace" style="rounded=0;whiteSpace=wrap;html=1;" vertex="1" parent="1">
          <mxGeometry x="497" y="-420" width="120" height="20" as="geometry" />
        </mxCell>
        <mxCell id="7S3xfPPljMcKxenAqMX9-25" value="records" style="text;html=1;align=center;verticalAlign=middle;resizable=0;points=[];autosize=1;strokeColor=none;fillColor=none;" vertex="1" parent="1">
          <mxGeometry x="556" y="-450" width="60" height="20" as="geometry" />
        </mxCell>
        <mxCell id="7S3xfPPljMcKxenAqMX9-26" value="dyn_ftrace" style="rounded=0;whiteSpace=wrap;html=1;" vertex="1" parent="1">
          <mxGeometry x="497" y="-400" width="120" height="20" as="geometry" />
        </mxCell>
        <mxCell id="7S3xfPPljMcKxenAqMX9-27" value="dyn_ftrace" style="rounded=0;whiteSpace=wrap;html=1;" vertex="1" parent="1">
          <mxGeometry x="497" y="-380" width="120" height="20" as="geometry" />
        </mxCell>
        <mxCell id="7S3xfPPljMcKxenAqMX9-28" value="..." style="rounded=0;whiteSpace=wrap;html=1;" vertex="1" parent="1">
          <mxGeometry x="497" y="-360" width="120" height="20" as="geometry" />
        </mxCell>
        <mxCell id="7S3xfPPljMcKxenAqMX9-29" value="dyn_ftrace" style="rounded=0;whiteSpace=wrap;html=1;" vertex="1" parent="1">
          <mxGeometry x="497" y="-340" width="120" height="20" as="geometry" />
        </mxCell>
        <mxCell id="7S3xfPPljMcKxenAqMX9-31" style="edgeStyle=orthogonalEdgeStyle;rounded=0;orthogonalLoop=1;jettySize=auto;html=1;entryX=0;entryY=0.5;entryDx=0;entryDy=0;" edge="1" parent="1" source="7S3xfPPljMcKxenAqMX9-30" target="7S3xfPPljMcKxenAqMX9-1">
          <mxGeometry relative="1" as="geometry" />
        </mxCell>
        <mxCell id="7S3xfPPljMcKxenAqMX9-30" value="start_page" style="text;html=1;strokeColor=none;fillColor=none;align=center;verticalAlign=middle;whiteSpace=wrap;rounded=0;" vertex="1" parent="1">
          <mxGeometry x="20" y="-495" width="60" height="30" as="geometry" />
        </mxCell>
      </root>
    </mxGraphModel>
  </diagram>
</mxfile>
